<?xml version="1.0" encoding="UTF-8" standalone="no"?>
<svg
   xmlns:dc="http://purl.org/dc/elements/1.1/"
   xmlns:cc="http://creativecommons.org/ns#"
   xmlns:rdf="http://www.w3.org/1999/02/22-rdf-syntax-ns#"
   xmlns:svg="http://www.w3.org/2000/svg"
   xmlns="http://www.w3.org/2000/svg"
   xmlns:sodipodi="http://sodipodi.sourceforge.net/DTD/sodipodi-0.dtd"
   xmlns:inkscape="http://www.inkscape.org/namespaces/inkscape"
   width="1024"
   height="1024"
   viewBox="0 0 270.93333 270.93333"
   version="1.1"
   id="svg1014"
   inkscape:version="1.0.1 (c497b03c, 2020-09-10)"
   sodipodi:docname="webfragmentslogo.svg">
  <defs
     id="defs1008" />
  <sodipodi:namedview
     id="base"
     pagecolor="#ffffff"
     bordercolor="#666666"
     borderopacity="1.0"
     inkscape:pageopacity="0.0"
     inkscape:pageshadow="2"
     inkscape:zoom="0.40174128"
     inkscape:cx="503.38275"
     inkscape:cy="668.42768"
     inkscape:document-units="mm"
     inkscape:current-layer="layer5"
     inkscape:document-rotation="0"
     showgrid="false"
     inkscape:window-width="1252"
     inkscape:window-height="769"
     inkscape:window-x="102"
     inkscape:window-y="25"
     inkscape:window-maximized="0"
     units="px"
     height="210mm"
     viewbox-height="210"
     viewbox-width="210"
     showguides="false" />
  <metadata
     id="metadata1011">
    <rdf:RDF>
      <cc:Work
         rdf:about="">
        <dc:format>image/svg+xml</dc:format>
        <dc:type
           rdf:resource="http://purl.org/dc/dcmitype/StillImage" />
        <dc:title></dc:title>
      </cc:Work>
    </rdf:RDF>
  </metadata>
  <g
     inkscape:groupmode="layer"
     id="layer5"
     inkscape:label="Layer 3" />
  <g
     inkscape:groupmode="layer"
     id="layer4"
     inkscape:label="Layer 2"
     style="display:inline">
    <path
       style="fill:#ffffff;fill-opacity:1;stroke:#ffffff;stroke-width:0.264583px;stroke-linecap:butt;stroke-linejoin:miter;stroke-opacity:1"
       d="m 140.70607,266.35068 c 0,0 7.93942,-3.1199 15.77432,-9.47936 7.83489,-6.35948 70.23475,-55.52287 70.23475,-55.52287 0,0 23.38495,-11.49431 23.38495,-14.66514 0,-3.17084 -2.70675,-32.15704 -1.44859,-35.98346 1.25816,-3.82642 1.65674,-30.05206 1.65674,-30.05206 0,0 -1.65172,-13.94986 -2.30558,-14.96135 -0.65386,-1.01148 8.04471,-29.009053 8.04471,-29.009053 0,0 2.93012,-9.23464 -11.89261,-12.86418 -14.82272,-3.62953 -29.88382,-6.33128 -29.88382,-6.33128 l -51.76533,-41.62769 c 0,0 -22.19589,-12.683364 -27.74486,-13.476074 C 129.21177,1.585452 121.28467,1.981808 120.09561,3.963583 118.90654,5.945359 93.521069,46.21445 80.118624,44.640306 66.716179,43.06616 36.682896,61.516947 36.682896,61.516947 c 0,0 -27.8104923,5.73957 -24.395888,16.9614 3.414605,11.22183 6.911409,16.85904 7.28053,31.874913 0.369122,15.01586 -0.146137,69.19565 -0.146137,71.97014 0,2.77449 1.530819,14.56956 11.140186,18.33122 9.609364,3.76166 98.392903,63.14519 98.392903,63.14519 0,0 3.82448,4.53263 11.75158,2.55087 z"
       id="path7839" />
  </g>
  <g
     inkscape:label="Layer 1"
     inkscape:groupmode="layer"
     id="layer1"
     style="display:inline">
    <g
       id="g7734"
       transform="matrix(1.3645695,0,0,1.3204892,-4.7541406,-9.6236284)">
      <path
         style="fill:#e65e9c;stroke-width:0.264583"
         d="m 97.985945,207.06221 c -1.2377,-0.57483 -4.078389,-2.39724 -8.065408,-5.17427 -2.182813,-1.52037 -4.445,-3.09524 -5.027084,-3.49972 -2.974059,-2.06663 -14.872914,-10.10906 -26.050415,-17.60746 -6.906164,-4.63299 -13.479417,-9.13799 -14.60723,-10.01112 -2.288609,-1.77178 -4.62955,-3.43843 -8.241509,-5.8676 -3.045405,-2.04813 -4.022458,-2.75742 -5.28846,-3.83909 -0.915218,-0.78196 -1.169686,-0.86134 -2.809664,-0.87645 l -1.803296,-0.0166 -1.95284,-1.69022 c -2.347565,-2.03186 -2.878878,-2.60125 -2.878878,-3.08516 0,-0.57156 0.368158,-0.44966 2.083996,0.69003 1.861883,1.2367 5.47756,3.17574 5.921719,3.17574 0.169211,0 -0.745797,-1.00709 -2.03335,-2.23796 -2.252387,-2.15324 -2.33521,-2.27368 -2.187887,-3.18152 0.141785,-0.87372 0.07724,-0.99146 -0.872183,-1.5908 -0.563914,-0.35598 -1.122451,-0.80204 -1.241192,-0.99124 -0.118743,-0.1892 -0.54359,-0.48789 -0.944107,-0.66376 -0.805571,-0.35374 -1.721111,-1.65255 -1.962064,-2.78346 -0.298132,-1.39928 -0.491491,-0.9282 -0.539931,1.31543 -0.02678,1.24059 -0.116601,2.32352 -0.199593,2.40651 -0.539765,0.53976 -0.74729,-0.97764 -1.458133,-10.66175 -0.864046,-11.77126 -1.090041,-15.60856 -1.346097,-22.85614 -0.274903,-7.78108 -0.267001,-8.07581 0.263332,-9.82181 0.316696,-1.04266 0.550382,-2.56202 0.555397,-3.61104 0.0048,-0.99605 0.115196,-2.63818 0.24541,-3.64917 0.204758,-1.58975 0.172277,-1.92944 -0.240343,-2.513545 -0.262402,-0.371457 -0.565771,-1.092094 -0.674151,-1.601417 -0.272902,-1.282478 -0.740859,-2.116834 -1.697202,-3.026064 l -0.817371,-0.777105 v -8.913937 c 0,-7.600717 -0.05847,-8.962459 -0.396875,-9.243311 -0.230026,-0.190905 -0.396875,-0.768109 -0.396875,-1.372968 0,-0.705514 -0.214282,-1.324525 -0.661459,-1.910805 -0.809736,-1.06162 -0.814856,-1.155454 -0.06885,-1.261888 0.344848,-0.0492 0.632438,-0.305784 0.687872,-0.613714 0.0524,-0.291042 0.298779,-0.767292 0.547522,-1.058334 0.248742,-0.291041 0.593014,-0.85993 0.765047,-1.264195 0.358156,-0.841642 0.968328,-1.167873 1.445215,-0.772691 0.180048,0.149201 1.577516,0.810969 3.105485,1.470593 3.04376,1.313998 5.813563,2.769532 8.466667,4.449236 0.945885,0.59885 2.434167,1.471952 3.307292,1.940227 2.175285,1.166654 4.378457,2.441853 5.093229,2.947969 0.327422,0.231841 0.595312,0.356494 0.595312,0.277006 0,-0.130376 -6.379358,-5.056193 -7.764214,-5.995133 -1.098626,-0.744877 -3.76891,-3.074464 -6.410016,-5.592173 -1.465671,-1.39719 -3.162312,-2.759824 -3.770313,-3.028074 -0.608001,-0.268251 -1.105457,-0.584216 -1.105457,-0.702149 0,-0.299397 3.684084,-3.768053 5.071591,-4.775028 1.358316,-0.98579 4.899301,-3.200429 6.552182,-4.097933 0.645001,-0.350234 1.657033,-0.971436 2.248959,-1.380453 0.591925,-0.409014 2.564508,-1.611238 4.383518,-2.671604 1.819011,-1.060365 3.898559,-2.414161 4.621221,-3.008434 0.722662,-0.594273 1.487098,-1.19956 1.698749,-1.345081 0.211651,-0.14552 0.991756,-0.889661 1.733566,-1.653646 0.74181,-0.763984 1.438254,-1.389062 1.547654,-1.389062 0.1094,0 0.652923,-0.286607 1.207828,-0.636902 0.574286,-0.362532 1.660538,-0.718318 2.521527,-0.825892 1.725033,-0.21553 2.279872,-0.632431 2.279872,-1.713087 0,-1.043557 1.118026,-1.781823 3.624091,-2.393106 1.569744,-0.382892 2.227786,-0.69645 2.966839,-1.413698 1.051002,-1.019995 3.888351,-2.806899 4.456957,-2.806899 1.02045,0 2.900762,-1.16044 3.76878,-2.325913 0.509323,-0.68386 1.475402,-1.779743 2.14684,-2.435296 0.671441,-0.655554 1.418153,-1.577929 1.659361,-2.049723 0.477623,-0.934211 2.812124,-2.44284 3.786571,-2.447001 0.31972,-0.0014 1.141127,-0.30014 1.825342,-0.663942 0.684218,-0.363802 1.395759,-0.661458 1.5812,-0.661458 0.185444,0 0.673727,-0.2764 1.085072,-0.614222 0.411348,-0.337822 1.494621,-1.06238 2.40727,-1.61013 0.912651,-0.54775 2.022744,-1.448087 2.466877,-2.000749 0.444129,-0.552662 1.364292,-1.399823 2.044803,-1.882579 0.680508,-0.482756 1.773071,-1.402646 2.427915,-2.044201 1.04807,-1.026803 6.257036,-3.9355281 6.54037,-3.6521927 0.05278,0.052778 -0.221403,0.4731267 -0.609293,0.9341087 -0.885156,1.051946 -0.656849,1.312877 0.617154,0.705347 1.345353,-0.641554 3.547369,-0.839929 4.579204,-0.412529 0.480973,0.199226 0.900576,0.242029 1.001689,0.102181 0.0957,-0.132363 0.757148,-0.637562 1.469878,-1.122665 1.0392,-0.7073103 1.46325,-0.8506055 2.14093,-0.7234711 1.02865,0.192976 4.35573,1.8002101 5.87836,2.8397011 1.88116,1.284253 4.88801,2.602234 5.93676,2.602234 0.65862,0 1.23679,0.216619 1.76545,0.661459 0.43235,0.363802 0.87308,0.661458 0.9794,0.661458 0.74561,0 3.27256,1.465917 3.66127,2.123954 0.31211,0.528349 0.84992,0.898282 1.70223,1.170884 2.72926,0.87292 4.73032,1.662653 5.6116,2.214665 0.50932,0.319027 1.58088,0.82513 2.38125,1.124674 1.0502,0.393048 1.8418,0.958182 2.84427,2.030554 0.76398,0.817261 1.38906,1.637209 1.38906,1.822108 0,1.459872 1.24377,2.256864 5.55192,3.5576 3.1575,0.953326 5.2313,2.027189 6.26168,3.242444 0.39035,0.460391 1.12252,1.726787 1.62705,2.814212 0.50452,1.087424 1.19665,2.397111 1.53806,2.910416 0.81187,1.220637 2.59907,2.323695 4.28204,2.642862 1.90183,0.360678 2.83677,0.809393 4.92693,2.364645 1.00671,0.749081 2.1378,1.424197 2.51354,1.500259 2.7421,0.555104 4.11838,1.056521 5.06056,1.843688 0.57207,0.477952 1.42591,1.028452 1.89742,1.223333 2.26466,0.936006 4.39242,2.235684 5.19842,3.175296 0.93253,1.087134 3.21867,2.282733 5.79943,3.03298 0.77928,0.226542 1.79562,0.731581 2.25855,1.122312 0.46293,0.390734 1.55607,0.929741 2.4292,1.197798 2.66646,0.818626 3.12696,1.014804 4.49791,1.916174 2.18634,1.437468 2.42605,2.016781 2.61623,6.32279 0.11652,2.638163 0.0488,4.586407 -0.23393,6.730053 -0.28612,2.169348 -0.3982,5.512112 -0.39891,11.897394 -0.001,10.188504 0.0182,10.094659 -2.30769,11.198921 -1.4988,0.711581 -1.75901,1.392791 -0.68762,1.80013 1.77854,0.676201 2.03435,1.545479 1.14408,3.887794 -0.29097,0.76555 -0.52903,1.75564 -0.52903,2.20021 0,0.44457 -0.14003,1.06837 -0.31116,1.38622 -0.20545,0.38158 -0.37192,3.22969 -0.48999,8.38313 -0.12115,5.288 -0.31381,8.53051 -0.59738,10.05417 -0.80235,4.31114 -0.98071,6.81407 -1.15676,16.23343 -0.1438,7.69388 -0.24599,9.50741 -0.54216,9.62106 -0.63412,0.24334 -0.74079,-0.17264 -0.67091,-2.61636 0.0506,-1.76886 -0.0142,-2.35402 -0.25183,-2.2748 -0.17597,0.0587 -0.45475,0.63509 -0.61951,1.28097 -0.36063,1.41365 -0.81903,2.33181 -1.4816,2.96757 -0.27131,0.26033 -0.49373,0.73658 -0.49428,1.05833 -0.001,0.78977 -0.88963,2.19684 -1.63849,2.59539 -0.33521,0.1784 -1.77474,1.28733 -3.19895,2.46428 -1.42421,1.17696 -3.48665,2.86987 -4.58321,3.76203 -1.09655,0.89216 -2.16386,1.865 -2.37179,2.16186 -0.20793,0.29687 -0.74224,0.61974 -1.18735,0.7175 -0.49685,0.10913 -0.89736,0.40942 -1.03744,0.77784 -0.12548,0.33005 -0.88114,0.96862 -1.67925,1.41904 -0.7981,0.45043 -2.6915,2.04459 -4.20754,3.54259 -7.61684,7.5262 -11.89588,11.39327 -18.59186,16.80193 -1.01865,0.8228 -2.63677,2.21851 -3.59584,3.10157 -0.95906,0.88306 -2.26875,1.91462 -2.91041,2.29237 -2.47872,1.45919 -4.57242,2.78672 -5.67027,3.59527 -0.62917,0.46338 -1.52491,1.03951 -1.99055,1.2803 -1.34412,0.69508 -7.96674,6.08694 -8.9583,7.29349 -0.4952,0.60257 -1.32328,1.27228 -1.84017,1.48825 -0.51689,0.21597 -1.71907,0.89883 -2.67151,1.51747 -2.26935,1.474 -2.88707,1.78905 -3.26246,1.66392 -0.33087,-0.11029 3.35353,-3.73272 5.11161,-5.02562 0.57714,-0.42444 1.04936,-0.87742 1.04936,-1.00661 0,-0.12919 0.35718,-0.41961 0.79375,-0.64536 0.96859,-0.50088 1.05428,-1.19063 0.1479,-1.19063 -0.35521,0 -0.72335,0.12541 -0.81807,0.27868 -0.0947,0.15327 -0.78637,0.55429 -1.53697,0.89115 -0.75061,0.33687 -2.30148,1.43185 -3.44638,2.43331 -2.51893,2.20332 -4.08219,3.26435 -4.81933,3.27103 -0.88277,0.008 -2.49142,-2.0305 -2.49327,-3.15951 -7.9e-4,-0.51509 -0.11805,-1.64811 -0.26047,-2.51783 -0.14241,-0.86971 -0.28156,-4.35784 -0.30923,-7.75141 -0.0495,-6.08009 -0.0583,-6.16897 -0.59942,-6.09162 -0.43653,0.0624 -0.56369,0.29552 -0.62009,1.13683 -0.039,0.58208 -0.25482,3.14192 -0.47955,5.68854 -0.22473,2.54661 -0.51947,6.09073 -0.65497,7.87581 -0.33243,4.37947 -0.54464,4.82556 -2.59236,5.44938 -0.88987,0.27109 -1.809125,0.41954 -2.04279,0.32987 -0.670586,-0.25733 -0.88592,0.0454 -0.640648,0.90059 0.247562,0.8632 0.187415,0.89616 -0.799158,0.43796 z m -1.318533,-6.13007 c 0,-0.21828 -0.119063,-0.39687 -0.264583,-0.39687 -0.145521,0 -0.264584,0.17859 -0.264584,0.39687 0,0.21828 0.119063,0.39688 0.264584,0.39688 0.14552,0 0.264583,-0.1786 0.264583,-0.39688 z M 47.096054,168.89562 c -0.237487,-1.73265 -0.410464,-1.85664 -1.124408,-0.80598 -0.982728,1.44621 -0.816845,1.94881 0.659332,1.99765 0.599601,0.0198 0.622937,-0.04 0.465076,-1.19167 z m -1.493226,-1.83015 c 0,-0.3638 -0.119063,-0.66145 -0.264583,-0.66145 -0.295585,0 -0.362665,0.87205 -0.08819,1.14652 0.291661,0.29166 0.352777,0.20763 0.352777,-0.48507 z m -0.342442,-2.84427 c -0.06306,-0.32742 -0.114663,-0.0595 -0.114663,0.59532 0,0.65484 0.0516,0.92273 0.114663,0.59531 0.06307,-0.32742 0.06307,-0.86321 0,-1.19063 z m 115.419424,0.26459 c -0.0157,-0.80431 -0.0328,-0.81983 -0.2651,-0.24015 -0.13658,0.34086 -0.18153,0.72781 -0.0999,0.85989 0.27089,0.43831 0.38196,0.24972 0.365,-0.61974 z m -52.79286,-11.12572 c 0.37765,-0.60571 -0.23559,-1.04492 -1.16537,-0.83465 -2.82789,0.6395 -3.1725,0.95727 -1.50833,1.39087 1.09464,0.28521 2.30624,0.0332 2.6737,-0.55622 z m -5.3987,-1.23292 c 0,-0.25654 -3.432119,-1.42921 -3.623323,-1.23801 -0.05676,0.0568 0.268153,0.41567 0.722027,0.79758 0.583796,0.49123 1.128916,0.69438 1.863256,0.69438 0.57092,0 1.03804,-0.11428 1.03804,-0.25395 z m -7.143755,-3.42191 c 0,-0.25448 -0.643466,-0.56275 -1.146119,-0.54906 -0.169998,0.005 -0.07797,0.18322 0.204502,0.39687 0.583033,0.44099 0.941617,0.49894 0.941617,0.15219 z m 41.698335,-1.77456 c -0.12807,-0.33375 -0.25547,-0.37952 -0.46714,-0.16786 -0.16007,0.16008 -0.2118,0.49755 -0.11494,0.74995 0.12807,0.33374 0.25547,0.37952 0.46714,0.16785 0.16007,-0.16007 0.21179,-0.49754 0.11494,-0.74994 z m -30.81769,-9.29415 c -0.13832,-4.33252 -0.18762,-8.27201 -0.10955,-8.75444 0.10322,-0.63783 0.40375,-1.0447 1.10157,-1.49136 1.24027,-0.79386 2.30333,-1.9557 2.55361,-2.79088 0.10902,-0.3638 0.47958,-0.99802 0.82347,-1.40937 0.34389,-0.41134 0.62526,-0.85748 0.62526,-0.99142 0,-0.13394 0.39945,-0.69035 0.88768,-1.23647 0.48823,-0.54612 0.93471,-1.13075 0.99219,-1.29916 0.15004,-0.43966 4.49421,-4.8942 7.11081,-7.29147 1.22551,-1.12278 2.15315,-2.11648 2.06142,-2.2082 -0.0917,-0.0917 -1.95796,1.0055 -4.14717,2.4383 -9.39743,6.15042 -11.30303,7.23529 -12.70898,7.23529 -0.43562,0 -1.30222,-0.16154 -1.92577,-0.35898 -0.62355,-0.19743 -1.41467,-0.36961 -1.75805,-0.38261 -0.34337,-0.013 -1.43193,-0.59561 -2.41902,-1.29467 -6.708171,-4.7508 -8.24961,-5.76039 -10.827874,-7.09187 -0.563571,-0.29104 -1.249331,-0.73298 -1.52391,-0.98209 -0.274582,-0.24912 -0.953511,-0.64274 -1.508734,-0.87473 -2.092788,-0.87442 -0.591119,0.60305 3.902469,3.83958 0.998403,0.7191 3.141528,2.51429 4.7625,3.9893 2.695925,2.45317 3.970129,3.99102 6.513559,7.86125 0.93474,1.42235 1.76731,2.25112 2.78429,2.7716 1.93075,0.98812 2.0262,1.58714 1.46476,9.19197 -0.27428,3.71502 -0.29147,5.3633 -0.0714,6.83859 0.30967,2.07544 1.0166,3.33368 1.44395,2.57005 0.1234,-0.2205 0.11119,-3.94569 -0.0271,-8.27821 z m 75.51826,-9.65962 c 0.57524,-0.61647 0.74823,-0.86948 0.38443,-0.56223 -0.3638,0.30724 -0.92935,0.69676 -1.25677,0.86558 -0.32742,0.16883 -0.59531,0.42183 -0.59531,0.56223 0,0.49775 0.4348,0.24132 1.46765,-0.86558 z m -55.13022,-20.76883 c 2.08917,-1.55579 2.95022,-2.45198 2.35586,-2.45198 -0.72345,0 -5.84329,3.99624 -5.84329,4.56092 0,0.34708 1.00773,-0.26232 3.48743,-2.10894 z m -52.655329,-5.80733 c -0.104841,-0.89803 -0.142012,-0.9354 -0.476038,-0.47859 -0.451274,0.61715 -0.463294,1.10326 -0.03159,1.27746 0.590884,0.23843 0.622853,0.18812 0.507628,-0.79887 z m 108.834399,-0.6274 c 0.52563,-0.59152 0.52562,-0.59186 -0.006,-0.31359 -0.29267,0.15321 -0.76892,0.54505 -1.05833,0.87075 -0.52563,0.59152 -0.52562,0.59186 0.006,0.31359 0.29266,-0.15321 0.76891,-0.54505 1.05833,-0.87075 z m 1.45225,-1.176627 c 0.18373,-0.221388 0.21238,-0.396875 0.0648,-0.396875 -0.14552,0 -0.4128,0.178594 -0.59396,0.396875 -0.18373,0.221387 -0.21239,0.396875 -0.0648,0.396875 0.14552,0 0.4128,-0.178594 0.59396,-0.396875 z M 44.015328,89.463181 c 0,-0.409747 -0.641729,-0.846667 -1.243542,-0.846667 -0.644303,0 -0.849543,0.652407 -0.277812,0.883105 0.536202,0.216361 1.521354,0.192765 1.521354,-0.03644 z M 163.87158,87.818105 c -0.21828,-0.138501 -0.48991,-0.253645 -0.60362,-0.255873 -0.32304,-0.0063 -0.52944,0.742492 -0.34042,1.235067 0.15292,0.39851 0.23245,0.383677 0.75591,-0.141002 0.50133,-0.502504 0.52824,-0.622387 0.18813,-0.838192 z M 42.956994,82.281516 c 0,-0.30294 -1.108154,-1.111708 -1.283282,-0.93658 -0.158051,0.158049 0.760455,1.186162 1.059707,1.186162 0.122965,0 0.223575,-0.112311 0.223575,-0.249582 z M 165.56865,80.451195 c 0.0774,-0.125299 1.12626,-0.884219 2.33072,-1.686486 1.20445,-0.802267 3.02346,-2.23125 4.04224,-3.175516 1.04938,-0.972632 2.94179,-2.323836 4.36562,-3.117109 4.2761,-2.382372 8.53798,-4.542902 9.92164,-5.029701 0.72761,-0.255984 2.12659,-0.830294 3.10886,-1.276246 l 1.78593,-0.810824 V 63.87412 c 0,-1.42839 -0.0463,-1.525463 -1.29764,-2.723044 -0.8301,-0.794412 -2.37921,-1.78017 -4.29948,-2.735921 -7.72662,-3.845674 -11.38029,-5.561503 -11.52803,-5.413764 -0.20388,0.203872 -0.42952,0.05166 2.96994,2.003382 5.89293,3.383283 8.58998,5.120794 8.75479,5.64006 0.12397,0.390604 -0.0482,0.696743 -0.66223,1.177266 -0.45638,0.357166 -0.99306,1.040199 -1.19263,1.517848 -0.52711,1.261539 -4.5598,5.209787 -7.17317,7.02296 -0.72284,0.501515 -2.15433,1.688349 -3.18109,2.637412 -1.02676,0.949063 -2.49483,2.142289 -3.26238,2.651612 -0.76755,0.509323 -2.10849,1.610651 -2.97988,2.447396 -0.87137,0.836745 -1.69107,1.521354 -1.82153,1.521354 -0.13047,0 -0.36466,0.238125 -0.52042,0.529167 -0.22375,0.418084 -0.20121,0.529166 0.10737,0.529166 0.21481,0 0.45393,-0.102518 0.53137,-0.227819 z M 115.13846,62.491947 c -0.13282,-0.689697 -1.00855,-0.766617 -1.00855,-0.08858 0,0.378642 0.16993,0.548566 0.54857,0.548566 0.37864,0 0.52113,-0.142484 0.45998,-0.459984 z M 95.721736,59.953466 c -0.192305,-0.501142 -0.5295,-0.572331 -0.781278,-0.164947 -0.230153,0.372396 0.423143,1.133473 0.718997,0.837618 0.127355,-0.127354 0.155382,-0.430056 0.06228,-0.672671 z m 31.637344,-3.997378 c 0,-0.421383 -0.48005,-0.814385 -0.71175,-0.582687 -0.21766,0.217657 0.12211,0.963946 0.43886,0.963946 0.15009,0 0.27289,-0.171566 0.27289,-0.381259 z m 14.41979,-10.999449 c 0,-0.567135 -0.76879,-0.485219 -0.8803,0.0938 -0.0681,0.353589 0.0397,0.461346 0.39325,0.393253 0.26788,-0.05159 0.48705,-0.270761 0.48705,-0.48705 z M 22.319494,56.110904 c 0,-0.45878 1.811838,-1.838024 2.976793,-2.266061 1.929109,-0.708806 2.065311,-0.362083 0.31995,0.814477 -1.584804,1.068327 -3.296743,1.822109 -3.296743,1.451584 z"
         id="path7762" />
      <path
         style="fill:#43bfcf;stroke-width:0.264583"
         d="m 91.199218,202.01507 c -2.887689,-1.65127 -5.488686,-3.73528 -5.214869,-4.17832 0.311584,-0.50416 2.745563,0.50383 2.745563,1.13702 0,0.59439 1.113732,1.37715 1.772928,1.24606 1.088887,-0.21655 0.05809,-3.48527 -1.517044,-4.81066 -0.955969,-0.80439 -1.131009,-0.83742 -1.578801,-0.29786 -0.433752,0.52264 -1.032441,0.50232 -1.649351,-0.056 -0.48653,-0.4403 -0.49524,-0.414 -0.314389,0.94932 0.1817,1.36971 0.171365,1.40007 -0.446482,1.31189 -0.4987,-0.0712 -0.616767,-0.2295 -0.55817,-0.74845 0.04273,-0.37841 -0.111958,-0.79439 -0.363913,-0.97862 -0.509461,-0.37253 -0.316725,-1.13962 0.286334,-1.13962 0.312378,0 0.369631,-0.17354 0.240038,-0.7276 -0.36826,-1.57449 -1.691984,-1.79748 -1.691984,-0.28503 0,0.64643 -0.322371,1.61084 -0.678653,2.03027 -0.170387,0.20058 -3.293915,-1.64741 -5.153943,-3.04927 -1.084938,-0.81768 -2.3298,-1.68884 -2.766362,-1.93591 -1.287381,-0.72857 -11.329316,-7.41058 -11.90625,-7.92255 -0.291042,-0.25827 -0.913913,-0.65498 -1.384157,-0.8816 -0.683194,-0.32923 -7.210185,-4.72072 -14.416347,-9.6996 -1.374961,-0.94999 -1.484231,-1.37254 -0.334907,-1.29514 0.50583,0.0341 1.032605,-0.0517 1.170604,-0.1905 0.373308,-0.37559 -0.195392,-5.80231 -0.788956,-7.52849 l -0.500388,-1.45521 -0.0089,1.04511 c -0.0109,1.28662 -0.400671,1.00055 -0.876646,-0.64343 -0.183954,-0.63536 -0.473848,-1.20167 -0.644205,-1.25845 -0.431911,-0.14397 -0.703855,1.53916 -0.526431,3.25823 0.148527,1.4391 -0.154943,3.13974 -0.61051,3.42129 -0.136448,0.0843 -0.385146,-0.39098 -0.552659,-1.05624 -0.243692,-0.96778 -0.541555,-1.37975 -1.490096,-2.06094 -0.704993,-0.50629 -1.340041,-1.23756 -1.566736,-1.80412 -0.464899,-1.16191 -2.64605,-2.88582 -3.651226,-2.88582 -0.17829,0 -0.456137,-0.28965 -0.617437,-0.64367 -0.208778,-0.45821 -0.544994,-0.66785 -1.166948,-0.7276 -0.833329,-0.0801 -0.869754,-0.12895 -0.788778,-1.05848 0.117504,-1.34883 -0.321853,-2.06817 -1.263192,-2.06817 -1.187162,0 -1.550237,-0.23866 -1.87913,-1.23522 -0.238024,-0.72122 -0.559993,-1.03319 -1.468006,-1.42241 -0.639712,-0.27421 -1.163111,-0.62985 -1.163111,-0.79031 0,-0.32667 -1.53838,-1.8419 -2.529086,-2.49104 -0.355253,-0.23277 -0.645914,-0.6586 -0.645914,-0.94628 0,-0.61437 -0.803201,-1.4907 -1.497326,-1.63366 -0.267877,-0.0552 -0.470512,-0.30411 -0.450301,-0.55319 0.02172,-0.26775 -0.151133,-0.45289 -0.422838,-0.45289 -0.540375,0 -1.160431,-1.329 -1.60477,-3.43958 -0.470107,-2.23299 -1.870862,-6.33657 -2.236991,-6.55337 -0.191162,-0.1132 -0.394597,-1.07195 -0.490191,-2.31017 -0.08988,-1.16417 -0.276814,-2.95011 -0.415416,-3.96875 -0.313819,-2.30638 -0.811478,-11.77156 -0.869453,-16.53646 -0.03571,-2.93475 0.04139,-3.76065 0.432219,-4.63021 0.331853,-0.73834 0.551446,-2.21831 0.72627,-4.89479 0.149449,-2.28799 0.400943,-4.134445 0.623099,-4.574741 0.321355,-0.636899 0.320597,-0.758198 -0.0055,-0.88334 -0.207915,-0.07979 -0.49756,-0.07119 -0.643656,0.0191 -0.340182,0.210246 -0.978753,-0.794253 -1.210008,-1.903389 -0.09863,-0.473041 -0.567408,-1.324578 -1.041732,-1.892305 L 14.731706,92.90167 14.556842,88.467864 c -0.09618,-2.43859 -0.174865,-6.383509 -0.174865,-8.766482 0,-3.453114 -0.0826,-4.458745 -0.406899,-4.953682 -0.291191,-0.444413 -0.376208,-1.079593 -0.298971,-2.233666 0.09339,-1.395383 0.219504,-1.716884 0.936066,-2.386253 0.455475,-0.425479 0.828137,-0.956927 0.828137,-1.180994 0,-0.625176 0.48983,-0.788512 1.136115,-0.378841 0.321022,0.203493 1.357583,0.642641 2.303469,0.975886 3.704043,1.304973 9.639096,4.312394 13.170757,6.673914 0.622718,0.416393 1.229932,0.757079 1.349365,0.757079 0.119433,0 0.710231,0.357187 1.312889,0.79375 0.602657,0.436562 1.17525,0.79375 1.272426,0.79375 0.245573,0 2.836074,1.951556 4.627248,3.485946 1.11058,0.951367 1.536435,1.51471 1.665634,2.203394 0.09547,0.508884 0.265192,0.925243 0.377166,0.925243 0.277021,0 1.095348,-1.755087 1.095348,-2.34922 0,-0.637886 0.675005,-1.215138 2.220146,-1.898626 1.288931,-0.570156 5.268896,-3.432559 5.061331,-3.640121 -0.06185,-0.06185 -1.040868,0.309813 -2.175608,0.825912 -1.134737,0.516097 -2.627016,1.141095 -3.316177,1.388886 -0.68916,0.24779 -1.388348,0.613589 -1.553749,0.812889 -0.165405,0.199301 -0.505823,0.362363 -0.756486,0.362363 -0.524518,0 -3.28975,-1.732502 -5.035707,-3.155021 -0.654843,-0.533535 -1.488281,-1.174094 -1.852083,-1.423461 -0.363802,-0.24937 -1.149107,-0.839272 -1.745123,-1.310894 -0.596014,-0.471625 -1.786639,-1.384065 -2.645833,-2.027648 -2.290797,-1.715929 -6.101377,-5.729811 -7.175215,-7.558032 -0.513836,-0.874813 -0.995938,-2.045306 -1.071336,-2.601095 -0.09102,-0.670965 -0.346822,-1.14795 -0.761249,-1.419492 -0.861231,-0.564301 -0.81325,-1.542082 0.103443,-2.108049 0.400183,-0.247073 1.322917,-1.009552 2.050521,-1.694395 0.727604,-0.684844 2.394479,-1.871892 3.704167,-2.637882 1.309687,-0.76599 3.343995,-2.028238 4.520684,-2.804996 1.176692,-0.776759 2.545911,-1.59878 3.042708,-1.826716 0.496801,-0.227935 1.61765,-0.945866 2.490775,-1.595405 0.873125,-0.649539 1.92899,-1.387862 2.346367,-1.640716 0.417375,-0.252857 1.589029,-1.144349 2.603675,-1.981094 1.014642,-0.836745 2.006306,-1.521354 2.203696,-1.521354 0.337992,0 1.044136,0.35787 4.223345,2.14037 0.727604,0.407948 1.589313,0.863643 1.914906,1.012656 0.325597,0.149013 1.403324,0.805442 2.39495,1.45873 0.99163,0.653285 2.630234,1.574207 3.641344,2.046489 1.011111,0.472281 2.374165,1.268788 3.029009,1.770017 0.654844,0.50123 2.166281,1.36788 3.35875,1.925894 1.192467,0.558015 3.086262,1.557388 4.208428,2.220831 1.12217,0.663445 2.222765,1.171122 2.445767,1.128178 0.498244,-0.09595 -3.148672,-2.561762 -6.573362,-4.444487 -1.382448,-0.76 -2.679488,-1.517002 -2.88231,-1.682229 -0.202822,-0.165224 -1.214109,-0.717126 -2.247302,-1.226449 -1.245169,-0.613818 -1.991577,-1.163236 -2.213806,-1.629545 -0.22393,-0.469876 -0.817576,-0.903409 -1.787594,-1.30546 -0.798777,-0.331073 -1.452321,-0.718949 -1.452321,-0.861946 0,-0.142997 -0.07427,-0.185719 -0.165053,-0.09494 -0.225766,0.225763 -2.0116,-0.712267 -3.068738,-1.61189 -0.818562,-0.6966 -2.245241,-1.404017 -3.57923,-1.774761 -0.327422,-0.091 -0.595313,-0.273431 -0.595313,-0.405411 0,-0.468066 1.579719,-1.047297 2.85627,-1.047297 1.528352,0 2.170814,-0.535874 2.170814,-1.810661 0,-1.224452 1.381477,-2.001369 4.497916,-2.529546 0.623258,-0.10563 1.41341,-0.614183 2.416625,-1.555374 1.159299,-1.087623 2.007786,-1.594887 3.817676,-2.282381 2.15719,-0.819417 2.47991,-1.044117 4.420145,-3.07761 1.151178,-1.206509 2.441067,-2.337806 2.866419,-2.513993 0.480375,-0.198977 0.83607,-0.583305 0.938874,-1.01445 0.254019,-1.065318 0.335955,-1.116926 1.040442,-0.65533 0.360754,0.236376 0.686785,0.383881 0.724509,0.327788 0.998802,-1.485089 1.70071,-2.10527 3.261037,-2.881335 0.997278,-0.49602 3.003857,-1.612448 4.459065,-2.48095 1.455209,-0.868502 3.538803,-2.033103 4.630209,-2.588001 1.091406,-0.554899 2.419773,-1.278222 2.951924,-1.607386 2.281561,-1.411262 3.9414,-2.318272 4.24247,-2.318272 0.177784,0 0.983258,-0.458083 1.789946,-1.017962 2.094169,-1.453453 2.5352,-1.509057 3.746383,-0.472329 1.148938,0.983445 5.243742,2.640147 5.901602,2.387703 0.24048,-0.09228 0.6155,-0.512494 0.83336,-0.933803 0.31868,-0.616249 0.33923,-0.977308 0.10512,-1.846728 -0.16005,-0.594392 -0.24222,-1.129497 -0.18259,-1.189122 0.20042,-0.200422 2.41201,0.701192 4.41842,1.801283 3.08234,1.690022 9.21816,4.688382 9.99139,4.882451 0.84737,0.212676 1.53205,0.565118 2.64036,1.359137 0.78644,0.563422 1.86352,0.99916 5.26527,2.130078 0.74508,0.247705 1.51899,0.572688 1.71979,0.722186 0.36665,0.272969 2.13354,1.072385 4.02697,1.821968 0.99638,0.394452 1.01257,0.422775 0.83674,1.463521 -0.14205,0.84077 -0.0913,1.095045 0.2441,1.22376 0.23287,0.08936 0.60552,0.01133 0.82812,-0.173412 0.52396,-0.434845 0.90854,-0.06436 1.14786,1.105783 0.20048,0.980247 1.70278,2.197999 3.07089,2.489237 2.31714,0.493265 5.46708,1.60865 6.78796,2.403601 1.60778,0.967616 2.20689,1.765879 4.22316,5.627047 0.63784,1.221473 1.54666,2.53116 2.0196,2.910417 0.47294,0.379259 0.85989,0.767826 0.85989,0.863486 2e-5,0.323705 -7.26151,5.655432 -9.3927,6.896526 -1.16416,0.67795 -3.08267,1.983817 -4.26334,2.901926 -5.49898,4.276096 -7.51864,5.779159 -9.29655,6.91867 -1.7962,1.151228 -2.27533,1.774729 -1.65731,2.156684 0.1435,0.08869 0.73611,-0.295359 1.31691,-0.853445 0.5808,-0.558085 1.54958,-1.308232 2.15284,-1.666994 3.29471,-1.959367 7.08493,-4.614955 8.93669,-6.261418 0.68737,-0.611166 1.82738,-1.358804 2.53336,-1.661419 0.70597,-0.302617 1.68388,-0.901676 2.17313,-1.33124 0.48925,-0.429567 1.27489,-0.977787 1.74587,-1.218272 0.47097,-0.240482 1.34521,-0.867785 1.94273,-1.39401 2.4185,-2.129912 4.85695,-3.734893 5.67441,-3.734893 1.63314,0 3.12186,0.597234 4.9382,1.981065 1.01528,0.773528 2.37022,1.673133 3.01097,1.999126 0.64076,0.32599 1.81986,1.089795 2.62022,1.697344 0.80036,0.607547 2.46724,1.777469 3.70417,2.599828 1.23692,0.822357 2.90389,1.94551 3.70437,2.495894 1.45192,0.998305 3.44458,2.206014 7.0799,4.290991 2.21019,1.267617 2.97647,2.174545 2.49233,2.949784 -0.39449,0.631675 -0.40503,2.16004 -0.0176,2.547499 0.38229,0.382286 0.0877,0.83812 -0.74665,1.155337 -0.50948,0.193704 -0.63055,0.386162 -0.51674,0.821378 0.14933,0.57104 -0.6856,2.068005 -1.15342,2.068005 -0.12884,0 -0.74581,0.516884 -1.37105,1.148635 -0.62524,0.631749 -1.61305,1.451187 -2.19513,1.820974 -0.58208,0.369784 -1.77271,1.275548 -2.64583,2.012807 -0.87313,0.737256 -2.27404,1.912117 -3.11313,2.610797 -0.8391,0.69868 -2.08926,1.759712 -2.77813,2.357848 -1.47167,1.277821 -2.19834,1.690606 -2.97618,1.690606 -0.41681,0 -0.67842,0.281495 -0.98357,1.058333 -0.41228,1.04956 -1.2085,1.443405 -1.47096,0.727604 -0.081,-0.220911 -0.21029,-0.242874 -0.38936,-0.06615 -0.47009,0.463942 0.40497,2.565363 1.63797,3.933468 1.32436,1.469483 1.821,1.435148 1.57411,-0.108823 -0.17034,-1.065265 0.37566,-2.369436 0.99199,-2.369436 0.15716,0 0.89234,-0.545375 1.63373,-1.211943 0.74138,-0.666567 1.83044,-1.457219 2.42012,-1.757003 1.25565,-0.638347 2.1093,-1.256194 3.80439,-2.753503 0.68008,-0.600731 2.12948,-1.538406 3.22089,-2.083726 1.09141,-0.545319 2.30218,-1.215929 2.6906,-1.490244 0.38843,-0.274315 1.33265,-0.617553 2.09827,-0.762749 0.76563,-0.145198 1.58829,-0.441597 1.82815,-0.658664 0.23986,-0.217067 0.57377,-0.394669 0.74203,-0.394669 0.16825,0 0.88642,-0.357187 1.59593,-0.79375 0.7095,-0.436562 1.40491,-0.79375 1.54535,-0.79375 0.14044,0 0.52918,-0.29148 0.86386,-0.647734 0.33468,-0.356254 0.98051,-0.728655 1.43518,-0.827556 0.45467,-0.0989 1.06152,-0.343204 1.34857,-0.54289 0.28703,-0.199689 0.62706,-0.36307 0.75561,-0.36307 0.25226,0 0.11351,2.8023 -0.30928,6.246482 -0.14485,1.179994 -0.26927,6.136778 -0.27649,11.015076 -0.009,6.428631 -0.10265,9.06612 -0.33842,9.583592 -0.17892,0.392678 -0.80786,0.956053 -1.39764,1.251945 -1.52028,0.762703 -3.64945,2.954345 -3.25416,3.349633 0.45303,0.45303 0.88318,0.368733 1.29674,-0.25412 0.35376,-0.532794 0.41356,-0.539226 1.35519,-0.14579 0.67894,0.283681 0.98509,0.578723 0.98509,0.949354 0,1.072004 -0.59375,4.408858 -0.9684,5.442368 -0.26801,0.73934 -0.46052,3.17168 -0.6387,8.06979 -0.14028,3.8563 -0.38256,7.8449 -0.53841,8.86354 -0.15585,1.01865 -0.45408,2.92365 -0.66275,4.23334 -0.20866,1.30968 -0.49614,4.20578 -0.63884,6.43577 -0.1427,2.22999 -0.37798,4.27599 -0.52284,4.54667 -0.14486,0.27068 -0.26339,0.80545 -0.26339,1.18839 0,0.38294 -0.12528,0.93034 -0.2784,1.21644 -0.41773,0.78055 -1.83546,4.81609 -1.83696,5.22889 -7.9e-4,0.19795 -0.37855,0.94209 -0.83962,1.65365 -0.67126,1.03593 -0.98448,1.29373 -1.57188,1.29373 -0.92617,0 -1.1844,0.4066 -0.76086,1.198 0.41,0.76608 0.17809,1.44783 -0.4925,1.44783 -0.65553,0 -2.13844,0.65122 -2.8452,1.24947 -0.3056,0.25868 -1.10948,1.25963 -1.78639,2.22435 -0.74525,1.0621 -1.5473,1.88514 -2.03318,2.0864 -0.44134,0.1828 -2.01871,1.551 -3.50528,3.04044 -1.48657,1.48944 -3.00521,2.77896 -3.37475,2.8656 -0.76884,0.18025 -1.3384,0.70796 -2.18831,2.02749 -0.6854,1.06411 -2.0251,1.46526 -2.04685,0.61289 -0.0768,-3.00957 0.0757,-9.38712 0.28985,-12.12226 0.27635,-3.52977 0.4662,-4.51942 1.33693,-6.96886 0.65278,-1.83634 0.6438,-1.89468 -0.2916,-1.89468 -0.81731,0 -1.0428,0.43886 -0.50288,0.97878 0.41426,0.41427 0.0288,1.4322 -0.50866,1.34332 -0.46851,-0.0775 -0.41975,-0.41664 -1.35878,9.45185 -0.16617,1.74625 -0.49265,4.60375 -0.72552,6.35 -0.23288,1.74625 -0.47555,3.79175 -0.53928,4.54556 l -0.11588,1.37055 0.86294,0.0846 c 0.47461,0.0466 0.91143,0.23241 0.97071,0.413 0.0593,0.18059 -0.88406,1.2511 -2.09629,2.37891 -1.21224,1.12781 -2.97797,2.83694 -3.92386,3.79806 -0.94589,0.96113 -2.84213,2.68859 -4.21387,3.83881 -1.37174,1.15021 -3.17881,2.68661 -4.01571,3.41421 -0.8369,0.72761 -2.15535,1.81969 -2.92988,2.42685 -0.77454,0.60716 -2.40425,2.00614 -3.62158,3.10885 -1.21733,1.10271 -2.36361,2.00493 -2.54729,2.00493 -0.18368,0 -0.48333,0.17998 -0.66589,0.39995 -0.18257,0.21998 -0.82223,0.63946 -1.42146,0.93219 -0.59924,0.29272 -1.60259,0.83992 -2.22965,1.216 -1.82418,1.09402 -1.84895,0.23274 -0.0296,-1.02973 0.57903,-0.4018 1.15369,-0.99712 1.27702,-1.32292 0.19919,-0.5262 -0.0983,-5.96327 -0.3395,-6.20445 -0.15611,-0.15611 -0.9584,3.2752 -0.9584,4.09899 0,0.74503 -0.91856,1.90997 -1.50602,1.90997 -0.1547,0 -0.42949,0.17859 -0.61065,0.39687 -0.53103,0.63986 -1.5555,0.49202 -1.90493,-0.2749 -0.46872,-1.02873 -1.1511,-0.72308 -1.07954,0.48355 0.0528,0.88964 -0.005,0.98198 -0.61153,0.98198 -0.64157,0 -0.66241,0.049 -0.49522,1.16389 0.16972,1.13177 0.15253,1.16871 -0.62315,1.33908 -0.43872,0.0964 -0.86342,0.34652 -0.94377,0.55591 -0.0803,0.20939 -0.32842,0.3807 -0.55127,0.3807 -0.48149,0 -0.53808,-0.81959 -0.0877,-1.27 0.49278,-0.49279 -0.11129,-0.36259 -0.80965,0.17451 -0.55816,0.42928 -0.58645,0.54107 -0.26651,1.05337 0.50272,0.80497 0.0178,1.52729 -0.94627,1.40946 -0.39541,-0.0483 -0.91771,0.0874 -1.16065,0.30161 -0.24294,0.21421 -1.09656,0.66539 -1.89692,1.00262 -0.80037,0.33723 -1.59603,0.79682 -1.76813,1.02131 -0.24053,0.31374 -0.3861,0.33604 -0.62927,0.0964 -0.23696,-0.23353 -0.43652,-0.23672 -0.79523,-0.0127 -0.36464,0.22772 -0.64049,0.21258 -1.15627,-0.0635 -0.79318,-0.4245 -1.2888,-0.12259 -0.61163,0.37258 0.67702,0.49504 0.56639,0.68433 -0.29882,0.51128 -0.41878,-0.0837 -1.00532,-0.0217 -1.30342,0.13779 -0.42183,0.22576 -0.71782,0.18917 -1.33498,-0.16503 -0.71331,-0.40939 -0.84152,-0.41457 -1.27626,-0.0516 -0.78424,0.65481 -2.45258,0.49791 -3.02862,-0.28483 -0.42817,-0.5818 -0.49539,-1.30175 -0.55823,-5.97828 -0.0817,-6.08156 -0.24327,-5.59357 2.48653,-7.51063 2.26005,-1.58717 5.704,-4.76733 5.16277,-4.76733 -0.2274,0 -0.48527,0.11617 -0.57303,0.25817 -0.41948,0.67874 -7.09591,4.61966 -8.47483,5.00248 -1.2756,0.35413 -2.57768,0.38058 -2.91944,0.0593 -0.13824,-0.12996 -0.9062,-0.58974 -1.70656,-1.02174 -0.80037,-0.432 -2.566555,-1.40705 -3.924872,-2.16679 -2.563771,-1.43397 -3.63541,-1.70258 -1.497844,-0.37544 0.671089,0.41666 1.822712,1.23381 2.559164,1.81589 2.480432,1.96051 4.507342,3.30729 4.977472,3.30729 0.95412,0 1.15517,0.65703 0.83107,2.71592 -0.16573,1.05286 -0.3174,2.92632 -0.33704,4.16325 -0.0364,2.29413 -0.78757,5.63311 -1.41946,6.30968 -0.25978,0.27816 -0.45807,0.28963 -0.90174,0.0522 -0.5217,-0.2792 -0.61337,-0.20346 -1.10852,0.9159 -0.613619,1.3872 -1.14331,1.48119 -1.802654,0.31989 -0.80073,-1.41033 -2.877003,-1.87324 -3.73969,-0.83377 -0.173395,0.20893 -0.470141,0.37987 -0.659439,0.37987 -0.189299,0 -0.718963,0.31536 -1.177036,0.7008 -0.642374,0.54053 -0.797148,0.84309 -0.676717,1.32292 0.189269,0.75412 0.25737,0.75504 -1.088803,-0.0147 z m 10.202862,-9.25148 c 0.40915,-0.493 0.0879,-1.22416 -0.53795,-1.22416 -0.56836,0 -0.893652,0.58553 -0.66145,1.19063 0.19037,0.49609 0.80133,0.51318 1.1994,0.0335 z m 15.30748,-6.40562 c -0.25213,-0.25213 -0.75763,0.15627 -0.56972,0.4603 0.11168,0.18071 0.25967,0.17614 0.44969,-0.0139 0.15578,-0.15577 0.20979,-0.35666 0.12003,-0.44642 z m -42.267148,-1.03625 c 0,-0.65484 -0.119063,-1.19062 -0.264584,-1.19062 -0.292213,0 -0.369168,1.92389 -0.08819,2.20486 0.31261,0.31261 0.352777,0.19713 0.352777,-1.01424 z m 11.535833,-5.05354 c -0.128071,-0.33375 -0.255474,-0.37952 -0.46714,-0.16786 -0.160073,0.16008 -0.211797,0.49755 -0.114943,0.74995 0.128071,0.33374 0.255474,0.37952 0.46714,0.16786 0.160073,-0.16008 0.211797,-0.49755 0.114943,-0.74995 z m 41.528705,-1.83404 c -0.7131,-0.53936 -1.3912,-0.5333 -0.94162,0.008 0.18116,0.21828 0.58269,0.39309 0.89229,0.38846 0.55188,-0.008 0.55284,-0.016 0.0493,-0.39688 z m -65.784943,-0.71919 c -0.03205,-0.32742 0.03477,-0.81167 0.148489,-1.07612 0.252558,-0.58729 -0.198935,-1.10536 -0.771758,-0.88554 -0.47317,0.18157 -0.532267,0.89028 -0.156625,1.87829 0.318228,0.83701 0.85933,0.89485 0.779894,0.0834 z m 28.794689,-2.8848 c 0.384694,-0.3847 -0.04496,-1.28238 -0.613772,-1.28238 -0.546145,0 -0.772248,0.7171 -0.376465,1.19399 0.392842,0.47335 0.587869,0.49076 0.990237,0.0884 z m -39.093035,-0.86387 c 0,-0.42249 -0.382257,-0.94768 -0.689766,-0.94768 -0.380114,0 -0.504285,0.56984 -0.192177,0.88194 0.19269,0.1927 0.881943,0.24407 0.881943,0.0657 z m 31.220834,-1.32292 c 0,-0.53981 -0.689568,-1.26255 -2.831708,-2.96792 -2.860821,-2.27753 -4.312042,-3.20421 -4.312042,-2.75348 0,0.4946 2.85374,2.96065 5.436195,4.69767 0.478682,0.32198 0.946672,0.70893 1.039974,0.8599 0.163986,0.26533 0.667581,0.38892 0.667581,0.16383 z m -19.166599,-4.67723 c 0.283773,-0.45916 -0.602975,-1.21296 -0.981549,-0.83438 -0.234511,0.23451 -0.227219,0.40572 0.03051,0.71626 0.399121,0.48091 0.703458,0.51871 0.951039,0.11812 z m 21.680141,-3.4142 c -0.128011,-0.20712 -0.280212,-0.22249 -0.456602,-0.0461 -0.145521,0.14552 -0.178173,0.40439 -0.07256,0.57527 0.128011,0.20713 0.280212,0.2225 0.456602,0.0461 0.145521,-0.14553 0.178173,-0.4044 0.07256,-0.57528 z m 69.717713,-1.98437 c 0,-0.21828 -0.11907,-0.39688 -0.26459,-0.39688 -0.14552,0 -0.26458,0.1786 -0.26458,0.39688 0,0.21828 0.11906,0.39687 0.26458,0.39687 0.14552,0 0.26459,-0.17859 0.26459,-0.39687 z m -95.397053,-0.10842 c 0.224317,-0.36295 -0.126005,-1.08221 -0.527103,-1.08221 -0.533394,0 -0.734639,0.50377 -0.374565,0.93763 0.366001,0.44101 0.686686,0.49243 0.901668,0.14458 z m 3.851214,-8.35825 c 0,-0.51209 -0.519406,-0.77705 -0.858506,-0.43795 -0.201256,0.20125 -0.185905,0.4005 0.05303,0.68841 0.372999,0.44943 0.805473,0.31496 0.805473,-0.25046 z m 44.557039,-0.74082 c 0.37765,-0.60571 -0.23559,-1.04492 -1.16537,-0.83465 -2.82789,0.6395 -3.1725,0.95727 -1.50833,1.39087 1.09464,0.28521 2.30624,0.0332 2.6737,-0.55622 z m -5.3987,-1.23292 c 0,-0.25654 -3.432119,-1.42921 -3.623323,-1.23801 -0.05676,0.0568 0.268153,0.41567 0.722027,0.79758 0.583796,0.49123 1.128916,0.69438 1.863256,0.69438 0.57092,0 1.03804,-0.11428 1.03804,-0.25395 z m 26.15287,-2.77501 c 0.0585,-0.30163 -0.0369,-0.42885 -0.26459,-0.35302 -0.19579,0.0652 -0.39713,0.33074 -0.44741,0.5901 -0.0585,0.30163 0.0369,0.42885 0.26459,0.35303 0.19579,-0.0652 0.39713,-0.33075 0.44741,-0.59011 z m -33.296625,-0.6469 c 0,-0.25448 -0.643466,-0.56275 -1.146119,-0.54906 -0.169998,0.005 -0.07797,0.18322 0.204502,0.39687 0.583033,0.44099 0.941617,0.49894 0.941617,0.15219 z M 137.387,147.55245 c 0.26687,-0.71792 0.0998,-1.25677 -0.38963,-1.25677 -0.47456,0 -0.94719,0.91043 -0.74549,1.43604 0.23385,0.60941 0.87988,0.50739 1.13512,-0.17927 z m -30.93406,-2.39686 c 0.002,-0.26325 0.11963,-0.40721 0.26088,-0.31991 0.47326,0.29249 0.61478,-1.23645 0.37644,-4.06702 -0.3496,-4.15185 -0.27872,-10.02482 0.1356,-11.23592 0.27991,-0.81821 0.58158,-1.12311 1.5234,-1.53972 0.7578,-0.33522 1.26838,-0.76671 1.43936,-1.21644 0.14574,-0.38332 0.88379,-1.33393 1.64012,-2.11245 0.75632,-0.77852 1.75983,-1.81573 2.23003,-2.30491 0.5027,-0.52299 0.99321,-1.41643 1.19062,-2.16866 0.26074,-0.99351 0.70495,-1.64862 1.98871,-2.9329 0.90914,-0.9095 1.82797,-1.65365 2.04185,-1.65365 0.51256,0 4.37496,-3.82106 4.37496,-4.32813 0,-0.43841 1.65348,-1.88165 5.02709,-4.3879 3.0803,-2.28837 5.82083,-5.00157 5.82083,-5.76281 0,-0.85471 -0.59959,-0.76479 -2.34495,0.35167 -0.82033,0.52474 -2.38448,1.50998 -3.47588,2.18942 -2.5218,1.56991 -4.27615,2.81101 -5.74805,4.0664 -0.63982,0.5457 -1.26895,0.99219 -1.39806,0.99219 -0.12912,0 -0.93075,0.56554 -1.7814,1.25677 -0.85066,0.69122 -1.72884,1.37583 -1.95151,1.52135 -0.22268,0.14552 -1.42636,0.9492 -2.67485,1.78594 -1.55298,1.04082 -2.53036,1.52135 -3.09431,1.52135 -0.45338,0 -1.46957,0.34433 -2.2582,0.76516 -1.30658,0.69723 -1.54378,0.74172 -2.67194,0.50111 -0.91177,-0.19446 -1.39845,-0.17822 -1.84663,0.0616 -0.84019,0.44966 -3.727,-0.10754 -5.771836,-1.11406 -0.89372,-0.43991 -1.756037,-0.69578 -2.040525,-0.60549 -0.578916,0.18374 -0.98234,-0.0133 -3.883739,-1.89695 -1.199232,-0.77856 -2.226604,-1.41557 -2.28305,-1.41557 -0.152707,0 -2.830124,-1.6348 -3.740844,-2.28412 -0.435337,-0.31039 -1.386832,-0.86068 -2.114436,-1.22288 -5.568926,-2.7722 -10.715625,-5.82934 -10.715625,-6.36508 0,-0.51787 2.208988,-2.324457 6.085417,-4.976865 2.110052,-1.443784 4.729427,-3.342355 5.820833,-4.219052 1.091406,-0.876694 2.786814,-2.158989 3.767572,-2.849546 1.578115,-1.111158 3.272782,-2.880299 3.010392,-3.142689 -0.229026,-0.229026 -1.760662,0.667893 -3.470672,2.032415 -1.871176,1.493123 -3.95038,2.919481 -4.255733,2.919481 -0.09132,0 -0.617022,0.357188 -1.168226,0.79375 -0.551203,0.436563 -1.111609,0.79375 -1.245343,0.79375 -0.133736,0 -0.592852,0.372592 -1.02026,0.82798 -0.427408,0.45539 -1.372417,1.223946 -2.100022,1.707906 -3.165525,2.105515 -5.34448,3.658275 -6.043943,4.307015 -1.368854,1.269595 -2.636957,4.534185 -1.761265,4.534185 0.145521,0 0.264583,-0.17157 0.264583,-0.38126 0,-0.87652 0.640964,-0.60852 2.616401,1.09397 1.149258,0.99045 2.548766,2.0347 3.110016,2.32054 2.790621,1.42123 5.510779,3.45789 8.314198,6.22508 0.664578,0.65599 1.600142,1.5499 2.07903,1.98646 2.215443,2.01964 6.899106,7.25694 6.899106,7.71463 0,0.38066 0.182718,0.50569 0.727604,0.49788 0.54125,-0.008 0.717685,0.1112 0.68888,0.46446 -0.0213,0.26119 0.276357,0.6752 0.661458,0.92004 0.385101,0.24483 1.308579,1.0176 2.052177,1.71726 0.743592,0.69967 1.896822,1.61764 2.562722,2.03994 2.03412,1.29 2.15022,1.62478 1.78658,5.15177 -0.31358,3.0415 -0.1479,6.87648 0.2855,6.60862 0.127,-0.0785 0.2316,0.31081 0.23244,0.8651 z m 61.55015,-6.32817 c 1.49651,-1.155 1.94452,-2.12911 0.61912,-1.34618 -1.15949,0.68493 -2.31798,1.93528 -1.7931,1.93528 0.22588,0 0.75417,-0.2651 1.17398,-0.5891 z M 39.252828,137.16756 c 0,-0.21828 -0.119063,-0.39688 -0.264584,-0.39688 -0.14552,0 -0.264583,0.1786 -0.264583,0.39688 0,0.21828 0.119063,0.39687 0.264583,0.39687 0.145521,0 0.264584,-0.17859 0.264584,-0.39687 z m -8.995834,-0.40979 c -0.218281,-0.14817 -0.635,-0.39119 -0.926041,-0.54005 -0.415865,-0.21271 -0.395426,-0.15416 0.09546,0.27344 0.343546,0.29926 0.760264,0.54228 0.926042,0.54005 0.16578,-0.002 0.122825,-0.12527 -0.09546,-0.27344 z m 144.627826,-2.82685 c 2.7488,-2.09221 2.65208,-1.98397 2.02335,-2.26452 -0.43808,-0.19547 -0.8185,-0.0212 -1.98621,0.9099 -0.7944,0.63342 -1.81977,1.3545 -2.27862,1.60239 -0.48026,0.25946 -0.83426,0.66177 -0.83426,0.94809 0,0.71585 0.28965,0.90304 0.80653,0.52122 0.24759,-0.18289 1.26873,-0.95558 2.26921,-1.71708 z m -75.571575,1.25226 c 0,-0.29104 -0.119062,-0.52916 -0.264583,-0.52916 -0.145521,0 -0.264583,0.23812 -0.264583,0.52916 0,0.29104 0.119062,0.52917 0.264583,0.52917 0.145521,0 0.264583,-0.23813 0.264583,-0.52917 z m -37.158459,-2.32165 c -0.08613,-0.0861 -0.284718,-0.0285 -0.441296,0.12807 -0.20319,0.20319 -0.183523,0.46323 0.0687,0.90841 l 0.353385,0.62371 0.08791,-0.75179 c 0.04835,-0.41348 0.01744,-0.82227 -0.0687,-0.9084 z m -11.308035,-2.64199 c 0.06421,-0.45009 -0.04714,-0.59261 -0.463021,-0.59261 -0.411845,0 -0.547569,0.16876 -0.547569,0.68086 0,0.86845 0.885124,0.79116 1.01059,-0.0883 z M 36.210119,130.0679 c 0,-0.68964 -0.518821,-0.64636 -0.617577,0.0515 -0.06061,0.42834 0.02257,0.58779 0.264583,0.50712 0.194146,-0.0647 0.352994,-0.3161 0.352994,-0.55864 z m 145.517511,-1.76927 c -0.0677,-0.10958 0.0541,-0.34637 0.27082,-0.5262 0.2811,-0.23329 0.39396,-0.24034 0.39396,-0.0246 0,0.44256 1.99676,-0.63837 2.49606,-1.35122 0.43104,-0.6154 0.56056,-1.53346 0.21592,-1.53043 -0.39283,0.003 -1.6234,0.94977 -2.75205,2.11634 -0.6328,0.65406 -1.38868,1.33187 -1.67972,1.50624 -0.45098,0.27019 -0.47142,0.35618 -0.13833,0.58193 0.27848,0.18875 0.52387,0.14449 0.85365,-0.15396 0.25456,-0.23037 0.40741,-0.50851 0.33969,-0.61809 z m -151.735219,-3.154 c 0,-0.60441 -0.417147,-0.94009 -0.66662,-0.53643 -0.222261,0.35962 0.03662,1.04998 0.393734,1.04998 0.150088,0 0.272886,-0.2311 0.272886,-0.51355 z m 19.93618,-0.95013 c -0.08198,-0.21362 -0.255368,-0.3884 -0.385321,-0.3884 -0.271489,0 -0.31923,0.6226 -0.06708,0.87475 0.282247,0.28224 0.611508,-0.0717 0.452401,-0.48635 z m 135.506529,-9.93183 c 0,-0.20416 -0.20836,-0.41133 -0.46302,-0.46037 -0.45607,-0.0878 -0.64461,0.47359 -0.28112,0.83709 0.27734,0.27734 0.74414,0.041 0.74414,-0.37672 z m -4.59603,-0.84698 c -0.4405,-0.4405 -0.68998,-0.003 -0.27999,0.49115 0.24796,0.29878 0.39137,0.33446 0.46435,0.11554 0.0581,-0.17421 -0.0249,-0.44722 -0.18436,-0.60669 z M 76.263279,109.30235 c -0.165158,-0.26446 -0.672181,-0.73659 -1.126722,-1.04919 -0.454541,-0.31259 -1.222362,-0.93114 -1.706269,-1.37454 -0.792734,-0.72638 -1.369126,-0.85195 -1.369126,-0.29826 0,0.25422 3.919699,3.20282 4.257638,3.20282 0.13462,0 0.109635,-0.21637 -0.05552,-0.48083 z m 23.049966,-7.05979 c 0,-0.21828 -0.119062,-0.39688 -0.264583,-0.39688 -0.145521,0 -0.264583,0.1786 -0.264583,0.39688 0,0.21828 0.119062,0.39687 0.264583,0.39687 0.145521,0 0.264583,-0.17859 0.264583,-0.39687 z m 83.479005,-1.46921 c 0.52563,-0.59152 0.52562,-0.59186 -0.006,-0.31359 -0.29267,0.15321 -0.76892,0.54505 -1.05833,0.87075 -0.52563,0.59152 -0.52562,0.59186 0.006,0.31359 0.29266,-0.15321 0.76891,-0.54505 1.05833,-0.87075 z m 1.45225,-1.176627 c 0.18373,-0.221388 0.21238,-0.396875 0.0648,-0.396875 -0.14552,0 -0.4128,0.178594 -0.59396,0.396875 -0.18373,0.221387 -0.21239,0.396875 -0.0648,0.396875 0.14552,0 0.4128,-0.178594 0.59396,-0.396875 z m -11.05518,-8.647465 c -0.40415,-0.404156 -0.70237,-0.105936 -0.47821,0.478214 0.13235,0.344905 0.2471,0.379081 0.48248,0.143703 0.23538,-0.235382 0.23436,-0.383289 -0.004,-0.621917 z M 138.4307,90.61464 c 0.0585,-0.30163 -0.0369,-0.42885 -0.26458,-0.353026 -0.1958,0.0652 -0.39714,0.330748 -0.44741,0.590108 -0.0585,0.301631 0.0369,0.42885 0.26458,0.353026 0.1958,-0.0652 0.39714,-0.330748 0.44741,-0.590108 z M 44.125979,89.514248 c 0.557102,-0.21378 0.527558,-0.524108 -0.110651,-1.162317 -0.663168,-0.663168 -1.993011,-0.703871 -2.236841,-0.06846 -0.331493,0.863862 1.204733,1.669299 2.347492,1.230781 z m 3.830508,-0.345916 c 0.452371,-0.286438 0.193887,-1.080984 -0.351671,-1.080984 -0.437594,0 -1.022244,0.89155 -0.757957,1.155837 0.231809,0.231807 0.672243,0.202097 1.109628,-0.07485 z M 164.66533,87.376388 c 0,-0.494405 -2.08674,-0.468632 -2.27737,0.02813 -0.0793,0.206525 0.0609,0.688401 0.31151,1.070835 l 0.4556,0.695333 0.75513,-0.723461 c 0.41532,-0.397902 0.75513,-0.879777 0.75513,-1.070833 z m -52.12292,-0.592754 c 0,-0.387368 -1.34291,-1.34212 -1.88776,-1.34212 -0.56112,0 -0.65824,0.595199 -0.16276,0.997466 0.59675,0.484479 2.05052,0.728832 2.05052,0.344654 z m 2.88837,-0.634714 c -0.70417,-0.551526 -2.09462,-1.216684 -2.09462,-1.002019 0,0.316404 1.26571,1.06182 1.83004,1.077769 0.20615,0.0058 0.32521,-0.02826 0.26458,-0.07575 z M 96.612564,84.057722 c 2.249059,-1.666936 4.453476,-3.114124 4.743556,-3.114124 0.141,0 0.47944,-0.246494 0.75208,-0.547762 0.64745,-0.715423 1.98916,-0.516065 4.78566,0.711073 1.14087,0.500629 1.65284,0.49008 1.13928,-0.02347 -0.46074,-0.460748 -4.95301,-2.785676 -5.38253,-2.785676 -0.1633,0 -1.20292,0.68461 -2.31029,1.521354 -1.107357,0.836745 -2.476071,1.871324 -3.041583,2.299063 -1.379228,1.04322 -3.012575,2.587262 -3.012575,2.847864 0,0.49403 0.917824,0.135673 2.326402,-0.908322 z m -58.480088,0.0071 c -0.05836,-0.175094 -0.752896,-0.66634 -1.543405,-1.091661 -6.064416,-3.262873 -7.785489,-3.990784 -6.762117,-2.859971 0.245149,0.270886 0.918445,0.687605 1.496216,0.926042 0.57777,0.238437 1.527662,0.630613 2.110872,0.871506 0.583211,0.240889 1.74407,0.892368 2.579688,1.447728 1.543769,1.026004 2.3105,1.281621 2.118746,0.706356 z M 139.89853,80.874401 c 0.33531,-0.531582 0.12173,-0.794573 -0.46304,-0.570174 -0.23911,0.09176 -0.43474,0.402135 -0.43474,0.689734 0,0.59414 0.48863,0.529069 0.89778,-0.11956 z m -7.42647,-0.104889 c 0.23927,-0.23927 -0.3537,-0.913482 -0.64504,-0.733419 -0.3648,0.225454 -0.27598,0.907513 0.11817,0.907513 0.19403,0 0.43112,-0.07834 0.52687,-0.174094 z m -5.09559,-0.628965 c 0.67607,-0.361823 0.64813,-0.669475 -0.21645,-2.383475 -0.89262,-1.769575 -1.54124,-1.967354 -2.54393,-0.775716 -1.14244,1.35771 -0.89937,1.995734 1.12025,2.940545 1.19989,0.561327 1.03972,0.539975 1.64013,0.218646 z m 32.90329,-0.340262 c 0.44148,-0.322826 0.36984,-0.444243 -0.93645,-1.586949 -0.8616,-0.753706 -1.77851,-1.303288 -2.34572,-1.405994 -0.51217,-0.09274 -1.34794,-0.394229 -1.85726,-0.66998 -0.50932,-0.275752 -1.56217,-0.846513 -2.33966,-1.26836 -0.77749,-0.421846 -1.61093,-0.940932 -1.85208,-1.153522 -0.24116,-0.21259 -1.39097,-0.866167 -2.55514,-1.452391 -1.16416,-0.586224 -2.52675,-1.373238 -3.02796,-1.748922 -0.50121,-0.375693 -1.11927,-0.68307 -1.37345,-0.68307 -0.25418,0 -0.52849,-0.107338 -0.60957,-0.238529 -0.0811,-0.131194 -0.50787,-0.364186 -0.94842,-0.517764 -0.64104,-0.223467 -0.76002,-0.210386 -0.5958,0.06551 0.63245,1.062511 4.53448,3.59614 10.25937,6.66151 1.30969,0.701268 2.97709,1.710484 3.70533,2.242701 1.41958,1.037461 3.2616,2.074553 3.71858,2.093627 0.15409,0.0064 0.49529,-0.145613 0.75823,-0.337876 z M 53.999134,75.683109 c 3.530119,-1.764564 6.447872,-3.453111 8.548227,-4.946983 2.381084,-1.69354 2.807084,-1.988418 4.883592,-3.38042 0.727604,-0.487757 1.549728,-1.14236 1.826945,-1.454677 0.811414,-0.914156 -0.09519,-0.722124 -1.599617,0.338821 -0.707113,0.498668 -2.65488,1.708348 -4.32837,2.688179 -6.476809,3.792184 -9.166336,5.513481 -10.15076,6.49649 -0.562452,0.561639 -0.951302,1.021162 -0.864111,1.021162 0.08719,0 0.845031,-0.343157 1.684094,-0.762572 z m 98.575486,-5.716095 c 0.0287,-0.143529 -0.15619,-0.301088 -0.41085,-0.350131 -0.28962,-0.05577 -0.46302,0.074 -0.46302,0.346506 0,0.46032 0.78192,0.463561 0.87387,0.0036 z M 97.152362,66.430749 c 0.132704,-0.93753 -0.18111,-1.891318 -0.622282,-1.891318 -0.215508,0 -0.391835,0.12201 -0.391835,0.271131 0,0.149122 -0.297656,0.384302 -0.661458,0.522619 -0.821375,0.312285 -0.848072,0.896755 -0.06615,1.448056 0.822304,0.579774 1.633141,0.416608 1.741721,-0.350488 z m 41.583798,0.509135 c 0,-0.134959 -0.31165,-0.490524 -0.69255,-0.790144 -0.95508,-0.751265 -1.43926,-0.3684 -0.52674,0.416518 0.75223,0.647047 1.21929,0.790168 1.21929,0.373626 z m -2.70828,-1.926339 c -0.16195,-0.485854 -2.53241,-1.859761 -2.85972,-1.657474 -0.3899,0.240967 0.44486,1.154864 1.46696,1.606029 1.00309,0.442772 1.52969,0.462224 1.39276,0.05144 z M 173.132,64.054362 c 0,-0.344509 -0.31453,-0.573627 -0.57039,-0.415499 -0.27364,0.169119 -0.0377,0.635984 0.32142,0.635984 0.13693,0 0.24897,-0.09922 0.24897,-0.220485 z m 1.34276,-0.116858 c -0.0327,-0.316363 -0.39563,-0.255096 -0.50933,0.08599 -0.0582,0.174625 0.037,0.269875 0.21167,0.211667 0.17463,-0.05821 0.30857,-0.192154 0.29766,-0.297656 z M 175.481,62.97746 c 0.42689,-0.270385 0.17213,-0.819279 -0.38024,-0.819279 -0.2097,0 -0.38126,0.238125 -0.38126,0.529166 0,0.574435 0.1952,0.648801 0.7615,0.290113 z m -60.34254,-0.485513 c -0.13282,-0.689697 -1.00855,-0.766617 -1.00855,-0.08858 0,0.378642 0.16993,0.548566 0.54857,0.548566 0.37864,0 0.52113,-0.142484 0.45998,-0.459984 z M 95.721736,59.953466 c -0.192305,-0.501142 -0.5295,-0.572331 -0.781278,-0.164947 -0.230153,0.372396 0.423143,1.133473 0.718997,0.837618 0.127355,-0.127354 0.155382,-0.430056 0.06228,-0.672671 z M 175.7172,58.503623 c 0.0576,-0.172807 -0.0838,-0.314192 -0.3142,-0.314192 -0.2304,0 -0.41892,0.188515 -0.41892,0.418922 0,0.467236 0.56958,0.385866 0.73312,-0.10473 z m -36.45187,-1.350886 c 0,-0.27914 0.0664,-0.680508 0.14751,-0.891926 0.19204,-0.500459 -0.57937,-1.267113 -1.08121,-1.074539 -0.46792,0.17956 -0.50003,0.88297 -0.0822,1.800085 0.36027,0.790712 1.01586,0.898088 1.01586,0.16638 z m -11.50008,-0.565845 c 0.28097,-0.454626 -0.10776,-1.53574 -0.65811,-1.830279 -0.40359,-0.215993 -0.66084,-0.143579 -1.2304,0.346337 l -0.72013,0.619426 0.57207,0.572069 c 0.60225,0.602258 1.74379,0.76618 2.03657,0.292447 z m 25.25841,-2.927774 c 0,-0.127704 -0.16585,-0.232188 -0.36856,-0.232188 -0.3973,0 -0.7531,0.642224 -0.49745,0.89788 0.18659,0.186589 0.86601,-0.335674 0.86601,-0.665692 z M 79.373814,50.913389 c 0.08376,-0.218281 0.07565,-0.596607 -0.01802,-0.840724 -0.156126,-0.406863 -0.205597,-0.408573 -0.593654,-0.02051 -0.436377,0.436359 -0.319987,1.258105 0.178186,1.258105 0.154655,0 0.349724,-0.178594 0.433486,-0.396875 z m 24.966516,-0.264584 c 0.26278,-0.316632 0.26278,-0.477117 0,-0.79375 -0.686,-0.826582 -1.56419,-0.283749 -1.06126,0.65599 0.34103,0.63723 0.617,0.673055 1.06126,0.13776 z M 87.618662,49.405264 c 0.753655,-0.753655 -0.06994,-2.201172 -0.873125,-1.534584 -0.481185,0.399349 -0.524285,1.491991 -0.06615,1.676855 0.517387,0.20877 0.600877,0.196123 0.939271,-0.142271 z m 29.686248,-0.343959 c 0.41405,-0.498893 -0.0708,-1.190625 -0.83445,-1.190625 -0.72146,0 -0.94611,0.791967 -0.34859,1.228887 0.62227,0.455014 0.77783,0.449985 1.18304,-0.03826 z M 46.885631,46.578154 c 0.535554,-0.339395 0.251315,-1.208987 -0.426794,-1.305719 -0.640453,-0.09136 -1.016865,0.474517 -0.760328,1.143037 0.169278,0.441132 0.644893,0.506309 1.187122,0.162682 z m 94.893239,-0.939951 c 0.65931,-0.533556 0.74413,-0.723789 0.50081,-1.123167 -0.64283,-1.055097 -1.95602,-0.586417 -1.95602,0.698111 0,1.241213 0.32822,1.337085 1.45521,0.425056 z m -23.94479,-0.265449 c 0,-0.355213 0.11906,-0.719428 0.26458,-0.809365 0.14552,-0.08994 0.26459,-0.40335 0.26459,-0.696474 0,-0.803203 -0.80799,-0.51322 -1.40148,0.502984 -0.57808,0.989806 -0.44426,1.648698 0.33484,1.648698 0.39345,0 0.53747,-0.173064 0.53747,-0.645843 z m 7.9375,-0.696473 c 0,-0.378645 -0.14248,-0.521129 -0.45998,-0.459983 -0.6897,0.132823 -0.76662,1.008549 -0.0886,1.008549 0.37865,0 0.54857,-0.169923 0.54857,-0.548566 z m -23.41563,-3.291517 c 0,-0.892956 -0.0915,-1.0677 -0.59649,-1.139412 -0.774,-0.109908 -1.01394,0.526404 -0.58709,1.556906 0.48772,1.177457 1.18358,0.932 1.18358,-0.417494 z m 22.88646,-1.196308 c 0,-0.140402 -0.14883,-0.253453 -0.33073,-0.251225 -0.55898,0.0069 -1.06997,0.449781 -0.87773,0.760833 0.20992,0.339659 1.20846,-0.08143 1.20846,-0.509608 z M 95.079912,38.738825 c 0,-0.322686 -1.761477,-1.701247 -2.182813,-1.708307 -0.532847,-0.0089 -0.62299,0.65123 -0.132291,0.968817 0.715412,0.463026 2.315104,0.973998 2.315104,0.73949 z m 47.153158,-2.293734 c -0.40415,-0.404157 -0.70237,-0.105937 -0.47821,0.478213 0.13235,0.344906 0.2471,0.379082 0.48248,0.143703 0.23538,-0.235381 0.23436,-0.383288 -0.004,-0.621916 z m -14.3327,-0.503322 c 0.16243,-0.303504 0.22987,-0.617289 0.14986,-0.697297 -0.19574,-0.195741 -1.4849,0.664316 -1.4849,0.99064 0,0.487233 1.03953,0.258821 1.33504,-0.293343 z m -11.96909,-3.172183 c -0.0521,-0.156435 -0.20791,-0.284427 -0.34616,-0.284427 -0.13824,0 -0.29402,0.127992 -0.34616,0.284427 -0.0522,0.156435 0.10363,0.284427 0.34616,0.284427 0.24254,0 0.39831,-0.127992 0.34616,-0.284427 z m -20.901737,-9.43901 c -0.04904,-0.254662 -0.324032,-0.463021 -0.611089,-0.463021 -0.287057,0 -0.562047,0.208359 -0.61109,0.463021 -0.06679,0.346802 0.08659,0.463021 0.61109,0.463021 0.524494,0 0.677878,-0.116219 0.611089,-0.463021 z M 118.1578,201.81529 c 1.07149,-0.91978 2.35059,-1.90916 2.82711,-2.18677 0.37814,-0.22029 0.3806,-0.19531 0.0242,0.24515 -0.67069,0.8288 -2.1864,2.2491 -2.4002,2.2491 -0.1113,0 -0.42045,0.07 -0.68702,0.15554 -0.32789,0.10523 -0.25157,-0.0445 0.23594,-0.46302 z m 5.74167,-4.81599 c 0.35279,-0.38355 0.75432,-0.69737 0.89229,-0.69737 0.35511,0 -0.32488,0.7671 -0.9828,1.10869 -0.49161,0.25525 -0.48186,0.21096 0.0905,-0.41132 z M 32.922539,162.09135 c -0.343215,-0.17465 -0.800235,-0.58543 -1.015598,-0.91286 -0.362577,-0.55123 -0.351332,-0.59531 0.151847,-0.59531 0.304089,0 0.797126,0.3563 1.119471,0.80899 0.675142,0.94815 0.605853,1.1376 -0.25572,0.69918 z m -7.042049,-2.84869 c -0.09592,-0.1552 -0.119989,-0.3366 -0.05348,-0.4031 0.184539,-0.18454 0.990404,0.18081 0.990404,0.44901 0,0.33121 -0.725834,0.29564 -0.936921,-0.0459 z"
         id="path7760" />
      <path
         style="fill:#ea0f91;stroke-width:0.264583"
         d="m 91.199218,202.01507 c -2.887689,-1.65127 -5.488686,-3.73528 -5.214869,-4.17832 0.311584,-0.50416 2.745563,0.50383 2.745563,1.13702 0,0.59439 1.113732,1.37715 1.772928,1.24606 1.088887,-0.21655 0.05809,-3.48527 -1.517044,-4.81066 -0.955969,-0.80439 -1.131009,-0.83742 -1.578801,-0.29786 -0.433752,0.52264 -1.032441,0.50232 -1.649351,-0.056 -0.48653,-0.4403 -0.49524,-0.414 -0.314389,0.94932 0.1817,1.36971 0.171365,1.40007 -0.446482,1.31189 -0.4987,-0.0712 -0.616767,-0.2295 -0.55817,-0.74845 0.04273,-0.37841 -0.111958,-0.79439 -0.363913,-0.97862 -0.509461,-0.37253 -0.316725,-1.13962 0.286334,-1.13962 0.312378,0 0.369631,-0.17354 0.240038,-0.7276 -0.36826,-1.57449 -1.691984,-1.79748 -1.691984,-0.28503 0,0.64643 -0.322371,1.61084 -0.678653,2.03027 -0.170387,0.20058 -3.293915,-1.64741 -5.153943,-3.04927 -1.084938,-0.81768 -2.3298,-1.68884 -2.766362,-1.93591 -1.287381,-0.72857 -11.329316,-7.41058 -11.90625,-7.92255 -0.291042,-0.25827 -0.913913,-0.65498 -1.384157,-0.8816 -0.683194,-0.32923 -7.210185,-4.72072 -14.416347,-9.6996 -1.374961,-0.94999 -1.484231,-1.37254 -0.334907,-1.29514 0.50583,0.0341 1.032605,-0.0517 1.170604,-0.1905 0.373308,-0.37559 -0.195392,-5.80231 -0.788956,-7.52849 l -0.500388,-1.45521 -0.0089,1.04511 c -0.0109,1.28662 -0.400671,1.00055 -0.876646,-0.64343 -0.183954,-0.63536 -0.473848,-1.20167 -0.644205,-1.25845 -0.431911,-0.14397 -0.703855,1.53916 -0.526431,3.25823 0.148527,1.4391 -0.154943,3.13974 -0.61051,3.42129 -0.136448,0.0843 -0.385146,-0.39098 -0.552659,-1.05624 -0.243692,-0.96778 -0.541555,-1.37975 -1.490096,-2.06094 -0.704993,-0.50629 -1.340041,-1.23756 -1.566736,-1.80412 -0.464899,-1.16191 -2.64605,-2.88582 -3.651226,-2.88582 -0.17829,0 -0.456137,-0.28965 -0.617437,-0.64367 -0.208778,-0.45821 -0.544994,-0.66785 -1.166948,-0.7276 -0.833329,-0.0801 -0.869754,-0.12895 -0.788778,-1.05848 0.117504,-1.34883 -0.321853,-2.06817 -1.263192,-2.06817 -1.187162,0 -1.550237,-0.23866 -1.87913,-1.23522 -0.238024,-0.72122 -0.559993,-1.03319 -1.468006,-1.42241 -0.639712,-0.27421 -1.163111,-0.62985 -1.163111,-0.79031 0,-0.32667 -1.53838,-1.8419 -2.529086,-2.49104 -0.355253,-0.23277 -0.645914,-0.6586 -0.645914,-0.94628 0,-0.61437 -0.803201,-1.4907 -1.497326,-1.63366 -0.267877,-0.0552 -0.470512,-0.30411 -0.450301,-0.55319 0.02172,-0.26775 -0.151133,-0.45289 -0.422838,-0.45289 -0.540375,0 -1.160431,-1.329 -1.60477,-3.43958 -0.470107,-2.23299 -1.870862,-6.33657 -2.236991,-6.55337 -0.191162,-0.1132 -0.394597,-1.07195 -0.490191,-2.31017 -0.08988,-1.16417 -0.276814,-2.95011 -0.415416,-3.96875 -0.313819,-2.30638 -0.811478,-11.77156 -0.869453,-16.53646 -0.03571,-2.93475 0.04139,-3.76065 0.432219,-4.63021 0.331853,-0.73834 0.551446,-2.21831 0.72627,-4.89479 0.149449,-2.28799 0.400943,-4.134445 0.623099,-4.574741 0.321355,-0.636899 0.320597,-0.758198 -0.0055,-0.88334 -0.207915,-0.07979 -0.49756,-0.07119 -0.643656,0.0191 -0.340182,0.210246 -0.978753,-0.794253 -1.210008,-1.903389 -0.09863,-0.473041 -0.567408,-1.324578 -1.041732,-1.892305 L 14.731706,92.90167 14.556842,88.467864 c -0.09618,-2.43859 -0.174865,-6.383509 -0.174865,-8.766482 0,-3.453114 -0.0826,-4.458745 -0.406899,-4.953682 -0.291191,-0.444413 -0.376208,-1.079593 -0.298971,-2.233666 0.09339,-1.395383 0.219504,-1.716884 0.936066,-2.386253 0.455475,-0.425479 0.828137,-0.956927 0.828137,-1.180994 0,-0.625176 0.48983,-0.788512 1.136115,-0.378841 0.321022,0.203493 1.357583,0.642641 2.303469,0.975886 3.704043,1.304973 9.639096,4.312394 13.170757,6.673914 0.622718,0.416393 1.229932,0.757079 1.349365,0.757079 0.119433,0 0.710231,0.357187 1.312889,0.79375 0.602657,0.436562 1.17525,0.79375 1.272426,0.79375 0.245573,0 2.836074,1.951556 4.627248,3.485946 1.11058,0.951367 1.536435,1.51471 1.665634,2.203394 0.09547,0.508884 0.265192,0.925243 0.377166,0.925243 0.277021,0 1.095348,-1.755087 1.095348,-2.34922 0,-0.637886 0.675005,-1.215138 2.220146,-1.898626 1.288931,-0.570156 5.268896,-3.432559 5.061331,-3.640121 -0.06185,-0.06185 -1.040868,0.309813 -2.175608,0.825912 -1.134737,0.516097 -2.627016,1.141095 -3.316177,1.388886 -0.68916,0.24779 -1.388348,0.613589 -1.553749,0.812889 -0.165405,0.199301 -0.505823,0.362363 -0.756486,0.362363 -0.524518,0 -3.28975,-1.732502 -5.035707,-3.155021 -0.654843,-0.533535 -1.488281,-1.174094 -1.852083,-1.423461 -0.363802,-0.24937 -1.149107,-0.839272 -1.745123,-1.310894 -0.596014,-0.471625 -1.786639,-1.384065 -2.645833,-2.027648 -2.290797,-1.715929 -6.101377,-5.729811 -7.175215,-7.558032 -0.513836,-0.874813 -0.995938,-2.045306 -1.071336,-2.601095 -0.09102,-0.670965 -0.346822,-1.14795 -0.761249,-1.419492 -0.861231,-0.564301 -0.81325,-1.542082 0.103443,-2.108049 0.400183,-0.247073 1.322917,-1.009552 2.050521,-1.694395 0.727604,-0.684844 2.394479,-1.871892 3.704167,-2.637882 1.309687,-0.76599 3.343995,-2.028238 4.520684,-2.804996 1.176692,-0.776759 2.545911,-1.59878 3.042708,-1.826716 0.496801,-0.227935 1.61765,-0.945866 2.490775,-1.595405 0.873125,-0.649539 1.92899,-1.387862 2.346367,-1.640716 0.417375,-0.252857 1.589029,-1.144349 2.603675,-1.981094 1.014642,-0.836745 2.006306,-1.521354 2.203696,-1.521354 0.337992,0 1.044136,0.35787 4.223345,2.14037 0.727604,0.407948 1.589313,0.863643 1.914906,1.012656 0.325597,0.149013 1.403324,0.805442 2.39495,1.45873 0.99163,0.653285 2.630234,1.574207 3.641344,2.046489 1.011111,0.472281 2.374165,1.268788 3.029009,1.770017 0.654844,0.50123 2.166281,1.36788 3.35875,1.925894 1.192467,0.558015 3.086262,1.557388 4.208428,2.220831 1.12217,0.663445 2.222765,1.171122 2.445767,1.128178 0.498244,-0.09595 -3.148672,-2.561762 -6.573362,-4.444487 -1.382448,-0.76 -2.679488,-1.517002 -2.88231,-1.682229 -0.202822,-0.165224 -1.214109,-0.717126 -2.247302,-1.226449 -1.245169,-0.613818 -1.991577,-1.163236 -2.213806,-1.629545 -0.22393,-0.469876 -0.817576,-0.903409 -1.787594,-1.30546 -0.798777,-0.331073 -1.452321,-0.718949 -1.452321,-0.861946 0,-0.142997 -0.07427,-0.185719 -0.165053,-0.09494 -0.225766,0.225763 -2.0116,-0.712267 -3.068738,-1.61189 -0.818562,-0.6966 -2.245241,-1.404017 -3.57923,-1.774761 -0.327422,-0.091 -0.595313,-0.273431 -0.595313,-0.405411 0,-0.468066 1.579719,-1.047297 2.85627,-1.047297 1.528352,0 2.170814,-0.535874 2.170814,-1.810661 0,-1.224452 1.381477,-2.001369 4.497916,-2.529546 0.623258,-0.10563 1.41341,-0.614183 2.416625,-1.555374 1.159299,-1.087623 2.007786,-1.594887 3.817676,-2.282381 2.15719,-0.819417 2.47991,-1.044117 4.420145,-3.07761 1.151178,-1.206509 2.441067,-2.337806 2.866419,-2.513993 0.480375,-0.198977 0.83607,-0.583305 0.938874,-1.01445 0.254019,-1.065318 0.335955,-1.116926 1.040442,-0.65533 0.360754,0.236376 0.686785,0.383881 0.724509,0.327788 0.998802,-1.485089 1.70071,-2.10527 3.261037,-2.881335 0.997278,-0.49602 3.003857,-1.612448 4.459065,-2.48095 1.455209,-0.868502 3.538803,-2.033103 4.630209,-2.588001 1.091406,-0.554899 2.419773,-1.278222 2.951924,-1.607386 2.281561,-1.411262 3.9414,-2.318272 4.24247,-2.318272 0.177784,0 0.983258,-0.458083 1.789946,-1.017962 2.094169,-1.453453 2.5352,-1.509057 3.746383,-0.472329 1.148938,0.983445 5.243742,2.640147 5.901602,2.387703 0.24048,-0.09228 0.6155,-0.512494 0.83336,-0.933803 0.31868,-0.616249 0.33923,-0.977308 0.10512,-1.846728 -0.16005,-0.594392 -0.24222,-1.129497 -0.18259,-1.189122 0.20042,-0.200422 2.41201,0.701192 4.41842,1.801283 3.08234,1.690022 9.21816,4.688382 9.99139,4.882451 0.84737,0.212676 1.53205,0.565118 2.64036,1.359137 0.78644,0.563422 1.86352,0.99916 5.26527,2.130078 0.74508,0.247705 1.51899,0.572688 1.71979,0.722186 0.36665,0.272969 2.13354,1.072385 4.02697,1.821968 0.99638,0.394452 1.01257,0.422775 0.83674,1.463521 -0.14205,0.84077 -0.0913,1.095045 0.2441,1.22376 0.23287,0.08936 0.60552,0.01133 0.82812,-0.173412 0.52396,-0.434845 0.90854,-0.06436 1.14786,1.105783 0.20048,0.980247 1.70278,2.197999 3.07089,2.489237 2.31714,0.493265 5.46708,1.60865 6.78796,2.403601 1.60778,0.967616 2.20689,1.765879 4.22316,5.627047 0.63784,1.221473 1.54666,2.53116 2.0196,2.910417 0.47294,0.379259 0.85989,0.767826 0.85989,0.863486 2e-5,0.323705 -7.26151,5.655432 -9.3927,6.896526 -1.16416,0.67795 -3.08267,1.983817 -4.26334,2.901926 -5.49898,4.276096 -7.51864,5.779159 -9.29655,6.91867 -1.7962,1.151228 -2.27533,1.774729 -1.65731,2.156684 0.1435,0.08869 0.73611,-0.295359 1.31691,-0.853445 0.5808,-0.558085 1.54958,-1.308232 2.15284,-1.666994 3.29471,-1.959367 7.08493,-4.614955 8.93669,-6.261418 0.68737,-0.611166 1.82738,-1.358804 2.53336,-1.661419 0.70597,-0.302617 1.68388,-0.901676 2.17313,-1.33124 0.48925,-0.429567 1.27489,-0.977787 1.74587,-1.218272 0.47097,-0.240482 1.34521,-0.867785 1.94273,-1.39401 2.4185,-2.129912 4.85695,-3.734893 5.67441,-3.734893 1.63314,0 3.12186,0.597234 4.9382,1.981065 1.01528,0.773528 2.37022,1.673133 3.01097,1.999126 0.64076,0.32599 1.81986,1.089795 2.62022,1.697344 0.80036,0.607547 2.46724,1.777469 3.70417,2.599828 1.23692,0.822357 2.90389,1.94551 3.70437,2.495894 1.45192,0.998305 3.44458,2.206014 7.0799,4.290991 2.21019,1.267617 2.97647,2.174545 2.49233,2.949784 -0.39449,0.631675 -0.40503,2.16004 -0.0176,2.547499 0.38229,0.382286 0.0877,0.83812 -0.74665,1.155337 -0.50948,0.193704 -0.63055,0.386162 -0.51674,0.821378 0.14933,0.57104 -0.6856,2.068005 -1.15342,2.068005 -0.12884,0 -0.74581,0.516884 -1.37105,1.148635 -0.62524,0.631749 -1.61305,1.451187 -2.19513,1.820974 -0.58208,0.369784 -1.77271,1.275548 -2.64583,2.012807 -0.87313,0.737256 -2.27404,1.912117 -3.11313,2.610797 -0.8391,0.69868 -2.08926,1.759712 -2.77813,2.357848 -1.47167,1.277821 -2.19834,1.690606 -2.97618,1.690606 -0.41681,0 -0.67842,0.281495 -0.98357,1.058333 -0.41228,1.04956 -1.2085,1.443405 -1.47096,0.727604 -0.081,-0.220911 -0.21029,-0.242874 -0.38936,-0.06615 -0.47009,0.463942 0.40497,2.565363 1.63797,3.933468 1.32436,1.469483 1.821,1.435148 1.57411,-0.108823 -0.17034,-1.065265 0.37566,-2.369436 0.99199,-2.369436 0.15716,0 0.89234,-0.545375 1.63373,-1.211943 0.74138,-0.666567 1.83044,-1.457219 2.42012,-1.757003 1.25565,-0.638347 2.1093,-1.256194 3.80439,-2.753503 0.68008,-0.600731 2.12948,-1.538406 3.22089,-2.083726 1.09141,-0.545319 2.30218,-1.215929 2.6906,-1.490244 0.38843,-0.274315 1.33265,-0.617553 2.09827,-0.762749 0.76563,-0.145198 1.58829,-0.441597 1.82815,-0.658664 0.23986,-0.217067 0.57377,-0.394669 0.74203,-0.394669 0.16825,0 0.88642,-0.357187 1.59593,-0.79375 0.7095,-0.436562 1.40491,-0.79375 1.54535,-0.79375 0.14044,0 0.52918,-0.29148 0.86386,-0.647734 0.33468,-0.356254 0.98051,-0.728655 1.43518,-0.827556 0.45467,-0.0989 1.06152,-0.343204 1.34857,-0.54289 0.28703,-0.199689 0.62706,-0.36307 0.75561,-0.36307 0.25226,0 0.11351,2.8023 -0.30928,6.246482 -0.14485,1.179994 -0.26927,6.136778 -0.27649,11.015076 -0.009,6.428631 -0.10265,9.06612 -0.33842,9.583592 -0.17892,0.392678 -0.80786,0.956053 -1.39764,1.251945 -1.52028,0.762703 -3.64945,2.954345 -3.25416,3.349633 0.45303,0.45303 0.88318,0.368733 1.29674,-0.25412 0.35376,-0.532794 0.41356,-0.539226 1.35519,-0.14579 0.67894,0.283681 0.98509,0.578723 0.98509,0.949354 0,1.072004 -0.59375,4.408858 -0.9684,5.442368 -0.26801,0.73934 -0.46052,3.17168 -0.6387,8.06979 -0.14028,3.8563 -0.38256,7.8449 -0.53841,8.86354 -0.15585,1.01865 -0.45408,2.92365 -0.66275,4.23334 -0.20866,1.30968 -0.49614,4.20578 -0.63884,6.43577 -0.1427,2.22999 -0.37798,4.27599 -0.52284,4.54667 -0.14486,0.27068 -0.26339,0.80545 -0.26339,1.18839 0,0.38294 -0.12528,0.93034 -0.2784,1.21644 -0.41773,0.78055 -1.83546,4.81609 -1.83696,5.22889 -7.9e-4,0.19795 -0.37855,0.94209 -0.83962,1.65365 -0.67126,1.03593 -0.98448,1.29373 -1.57188,1.29373 -0.92617,0 -1.1844,0.4066 -0.76086,1.198 0.41,0.76608 0.17809,1.44783 -0.4925,1.44783 -0.65553,0 -2.13844,0.65122 -2.8452,1.24947 -0.3056,0.25868 -1.10948,1.25963 -1.78639,2.22435 -0.74525,1.0621 -1.5473,1.88514 -2.03318,2.0864 -0.44134,0.1828 -2.01871,1.551 -3.50528,3.04044 -1.48657,1.48944 -3.00521,2.77896 -3.37475,2.8656 -0.76884,0.18025 -1.3384,0.70796 -2.18831,2.02749 -0.6854,1.06411 -2.0251,1.46526 -2.04685,0.61289 -0.0768,-3.00957 0.0757,-9.38712 0.28985,-12.12226 0.27635,-3.52977 0.4662,-4.51942 1.33693,-6.96886 0.65278,-1.83634 0.6438,-1.89468 -0.2916,-1.89468 -0.81731,0 -1.0428,0.43886 -0.50288,0.97878 0.41426,0.41427 0.0288,1.4322 -0.50866,1.34332 -0.46851,-0.0775 -0.41975,-0.41664 -1.35878,9.45185 -0.16617,1.74625 -0.49265,4.60375 -0.72552,6.35 -0.23288,1.74625 -0.47555,3.79175 -0.53928,4.54556 l -0.11588,1.37055 0.86294,0.0846 c 0.47461,0.0466 0.91143,0.23241 0.97071,0.413 0.0593,0.18059 -0.88406,1.2511 -2.09629,2.37891 -1.21224,1.12781 -2.97797,2.83694 -3.92386,3.79806 -0.94589,0.96113 -2.84213,2.68859 -4.21387,3.83881 -1.37174,1.15021 -3.17881,2.68661 -4.01571,3.41421 -0.8369,0.72761 -2.15535,1.81969 -2.92988,2.42685 -0.77454,0.60716 -2.40425,2.00614 -3.62158,3.10885 -1.21733,1.10271 -2.36361,2.00493 -2.54729,2.00493 -0.18368,0 -0.48333,0.17998 -0.66589,0.39995 -0.18257,0.21998 -0.82223,0.63946 -1.42146,0.93219 -0.59924,0.29272 -1.60259,0.83992 -2.22965,1.216 -1.82418,1.09402 -1.84895,0.23274 -0.0296,-1.02973 0.57903,-0.4018 1.15369,-0.99712 1.27702,-1.32292 0.19919,-0.5262 -0.0983,-5.96327 -0.3395,-6.20445 -0.15611,-0.15611 -0.9584,3.2752 -0.9584,4.09899 0,0.74503 -0.91856,1.90997 -1.50602,1.90997 -0.1547,0 -0.42949,0.17859 -0.61065,0.39687 -0.53103,0.63986 -1.5555,0.49202 -1.90493,-0.2749 -0.46872,-1.02873 -1.1511,-0.72308 -1.07954,0.48355 0.0528,0.88964 -0.005,0.98198 -0.61153,0.98198 -0.64157,0 -0.66241,0.049 -0.49522,1.16389 0.16972,1.13177 0.15253,1.16871 -0.62315,1.33908 -0.43872,0.0964 -0.86342,0.34652 -0.94377,0.55591 -0.0803,0.20939 -0.32842,0.3807 -0.55127,0.3807 -0.48149,0 -0.53808,-0.81959 -0.0877,-1.27 0.49278,-0.49279 -0.11129,-0.36259 -0.80965,0.17451 -0.55816,0.42928 -0.58645,0.54107 -0.26651,1.05337 0.50272,0.80497 0.0178,1.52729 -0.94627,1.40946 -0.39541,-0.0483 -0.91771,0.0874 -1.16065,0.30161 -0.24294,0.21421 -1.09656,0.66539 -1.89692,1.00262 -0.80037,0.33723 -1.59603,0.79682 -1.76813,1.02131 -0.24053,0.31374 -0.3861,0.33604 -0.62927,0.0964 -0.23696,-0.23353 -0.43652,-0.23672 -0.79523,-0.0127 -0.36464,0.22772 -0.64049,0.21258 -1.15627,-0.0635 -0.79318,-0.4245 -1.2888,-0.12259 -0.61163,0.37258 0.67702,0.49504 0.56639,0.68433 -0.29882,0.51128 -0.41878,-0.0837 -1.00532,-0.0217 -1.30342,0.13779 -0.42183,0.22576 -0.71782,0.18917 -1.33498,-0.16503 -0.71331,-0.40939 -0.84152,-0.41457 -1.27626,-0.0516 -0.78424,0.65481 -2.45258,0.49791 -3.02862,-0.28483 -0.42817,-0.5818 -0.49539,-1.30175 -0.55823,-5.97828 -0.0817,-6.08156 -0.24327,-5.59357 2.48653,-7.51063 2.26005,-1.58717 5.704,-4.76733 5.16277,-4.76733 -0.2274,0 -0.48527,0.11617 -0.57303,0.25817 -0.41948,0.67874 -7.09591,4.61966 -8.47483,5.00248 -1.2756,0.35413 -2.57768,0.38058 -2.91944,0.0593 -0.13824,-0.12996 -0.9062,-0.58974 -1.70656,-1.02174 -0.80037,-0.432 -2.566555,-1.40705 -3.924872,-2.16679 -2.563771,-1.43397 -3.63541,-1.70258 -1.497844,-0.37544 0.671089,0.41666 1.822712,1.23381 2.559164,1.81589 2.480432,1.96051 4.507342,3.30729 4.977472,3.30729 0.95412,0 1.15517,0.65703 0.83107,2.71592 -0.16573,1.05286 -0.3174,2.92632 -0.33704,4.16325 -0.0364,2.29413 -0.78757,5.63311 -1.41946,6.30968 -0.25978,0.27816 -0.45807,0.28963 -0.90174,0.0522 -0.5217,-0.2792 -0.61337,-0.20346 -1.10852,0.9159 -0.613619,1.3872 -1.14331,1.48119 -1.802654,0.31989 -0.80073,-1.41033 -2.877003,-1.87324 -3.73969,-0.83377 -0.173395,0.20893 -0.470141,0.37987 -0.659439,0.37987 -0.189299,0 -0.718963,0.31536 -1.177036,0.7008 -0.642374,0.54053 -0.797148,0.84309 -0.676717,1.32292 0.189269,0.75412 0.25737,0.75504 -1.088803,-0.0147 z m 10.202862,-9.25148 c 0.40915,-0.493 0.0879,-1.22416 -0.53795,-1.22416 -0.56836,0 -0.893652,0.58553 -0.66145,1.19063 0.19037,0.49609 0.80133,0.51318 1.1994,0.0335 z m 15.30748,-6.40562 c -0.25213,-0.25213 -0.75763,0.15627 -0.56972,0.4603 0.11168,0.18071 0.25967,0.17614 0.44969,-0.0139 0.15578,-0.15577 0.20979,-0.35666 0.12003,-0.44642 z m -42.267148,-1.03625 c 0,-0.65484 -0.119063,-1.19062 -0.264584,-1.19062 -0.292213,0 -0.369168,1.92389 -0.08819,2.20486 0.31261,0.31261 0.352777,0.19713 0.352777,-1.01424 z m 11.535833,-5.05354 c -0.128071,-0.33375 -0.255474,-0.37952 -0.46714,-0.16786 -0.160073,0.16008 -0.211797,0.49755 -0.114943,0.74995 0.128071,0.33374 0.255474,0.37952 0.46714,0.16786 0.160073,-0.16008 0.211797,-0.49755 0.114943,-0.74995 z m 41.528705,-1.83404 c -0.7131,-0.53936 -1.3912,-0.5333 -0.94162,0.008 0.18116,0.21828 0.58269,0.39309 0.89229,0.38846 0.55188,-0.008 0.55284,-0.016 0.0493,-0.39688 z m -65.784943,-0.71919 c -0.03205,-0.32742 0.03477,-0.81167 0.148489,-1.07612 0.252558,-0.58729 -0.198935,-1.10536 -0.771758,-0.88554 -0.47317,0.18157 -0.532267,0.89028 -0.156625,1.87829 0.318228,0.83701 0.85933,0.89485 0.779894,0.0834 z m 28.794689,-2.8848 c 0.384694,-0.3847 -0.04496,-1.28238 -0.613772,-1.28238 -0.546145,0 -0.772248,0.7171 -0.376465,1.19399 0.392842,0.47335 0.587869,0.49076 0.990237,0.0884 z m -39.093035,-0.86387 c 0,-0.42249 -0.382257,-0.94768 -0.689766,-0.94768 -0.380114,0 -0.504285,0.56984 -0.192177,0.88194 0.19269,0.1927 0.881943,0.24407 0.881943,0.0657 z m 31.220834,-1.32292 c 0,-0.53981 -0.689568,-1.26255 -2.831708,-2.96792 -2.860821,-2.27753 -4.312042,-3.20421 -4.312042,-2.75348 0,0.4946 2.85374,2.96065 5.436195,4.69767 0.478682,0.32198 0.946672,0.70893 1.039974,0.8599 0.163986,0.26533 0.667581,0.38892 0.667581,0.16383 z m -19.166599,-4.67723 c 0.283773,-0.45916 -0.602975,-1.21296 -0.981549,-0.83438 -0.234511,0.23451 -0.227219,0.40572 0.03051,0.71626 0.399121,0.48091 0.703458,0.51871 0.951039,0.11812 z m 21.680141,-3.4142 c -0.128011,-0.20712 -0.280212,-0.22249 -0.456602,-0.0461 -0.145521,0.14552 -0.178173,0.40439 -0.07256,0.57527 0.128011,0.20713 0.280212,0.2225 0.456602,0.0461 0.145521,-0.14553 0.178173,-0.4044 0.07256,-0.57528 z m 69.717713,-1.98437 c 0,-0.21828 -0.11907,-0.39688 -0.26459,-0.39688 -0.14552,0 -0.26458,0.1786 -0.26458,0.39688 0,0.21828 0.11906,0.39687 0.26458,0.39687 0.14552,0 0.26459,-0.17859 0.26459,-0.39687 z m -95.397053,-0.10842 c 0.224317,-0.36295 -0.126005,-1.08221 -0.527103,-1.08221 -0.533394,0 -0.734639,0.50377 -0.374565,0.93763 0.366001,0.44101 0.686686,0.49243 0.901668,0.14458 z m 3.851214,-8.35825 c 0,-0.51209 -0.519406,-0.77705 -0.858506,-0.43795 -0.201256,0.20125 -0.185905,0.4005 0.05303,0.68841 0.372999,0.44943 0.805473,0.31496 0.805473,-0.25046 z m 44.557039,-0.74082 c 0.37765,-0.60571 -0.23559,-1.04492 -1.16537,-0.83465 -2.82789,0.6395 -3.1725,0.95727 -1.50833,1.39087 1.09464,0.28521 2.30624,0.0332 2.6737,-0.55622 z m -5.3987,-1.23292 c 0,-0.25654 -3.432119,-1.42921 -3.623323,-1.23801 -0.05676,0.0568 0.268153,0.41567 0.722027,0.79758 0.583796,0.49123 1.128916,0.69438 1.863256,0.69438 0.57092,0 1.03804,-0.11428 1.03804,-0.25395 z m 26.15287,-2.77501 c 0.0585,-0.30163 -0.0369,-0.42885 -0.26459,-0.35302 -0.19579,0.0652 -0.39713,0.33074 -0.44741,0.5901 -0.0585,0.30163 0.0369,0.42885 0.26459,0.35303 0.19579,-0.0652 0.39713,-0.33075 0.44741,-0.59011 z m -33.296625,-0.6469 c 0,-0.25448 -0.643466,-0.56275 -1.146119,-0.54906 -0.169998,0.005 -0.07797,0.18322 0.204502,0.39687 0.583033,0.44099 0.941617,0.49894 0.941617,0.15219 z M 137.387,147.55245 c 0.26687,-0.71792 0.0998,-1.25677 -0.38963,-1.25677 -0.47456,0 -0.94719,0.91043 -0.74549,1.43604 0.23385,0.60941 0.87988,0.50739 1.13512,-0.17927 z m -30.93406,-2.39686 c 0.002,-0.26325 0.11963,-0.40721 0.26088,-0.31991 0.47326,0.29249 0.61478,-1.23645 0.37644,-4.06702 -0.3496,-4.15185 -0.27872,-10.02482 0.1356,-11.23592 0.27991,-0.81821 0.58158,-1.12311 1.5234,-1.53972 0.7578,-0.33522 1.26838,-0.76671 1.43936,-1.21644 0.14574,-0.38332 0.88379,-1.33393 1.64012,-2.11245 0.75632,-0.77852 1.75983,-1.81573 2.23003,-2.30491 0.5027,-0.52299 0.99321,-1.41643 1.19062,-2.16866 0.26074,-0.99351 0.70495,-1.64862 1.98871,-2.9329 0.90914,-0.9095 1.82797,-1.65365 2.04185,-1.65365 0.51256,0 4.37496,-3.82106 4.37496,-4.32813 0,-0.43841 1.65348,-1.88165 5.02709,-4.3879 3.0803,-2.28837 5.82083,-5.00157 5.82083,-5.76281 0,-0.85471 -0.59959,-0.76479 -2.34495,0.35167 -0.82033,0.52474 -2.38448,1.50998 -3.47588,2.18942 -2.5218,1.56991 -4.27615,2.81101 -5.74805,4.0664 -0.63982,0.5457 -1.26895,0.99219 -1.39806,0.99219 -0.12912,0 -0.93075,0.56554 -1.7814,1.25677 -0.85066,0.69122 -1.72884,1.37583 -1.95151,1.52135 -0.22268,0.14552 -1.42636,0.9492 -2.67485,1.78594 -1.55298,1.04082 -2.53036,1.52135 -3.09431,1.52135 -0.45338,0 -1.46957,0.34433 -2.2582,0.76516 -1.30658,0.69723 -1.54378,0.74172 -2.67194,0.50111 -0.91177,-0.19446 -1.39845,-0.17822 -1.84663,0.0616 -0.84019,0.44966 -3.727,-0.10754 -5.771836,-1.11406 -0.89372,-0.43991 -1.756037,-0.69578 -2.040525,-0.60549 -0.578916,0.18374 -0.98234,-0.0133 -3.883739,-1.89695 -1.199232,-0.77856 -2.226604,-1.41557 -2.28305,-1.41557 -0.152707,0 -2.830124,-1.6348 -3.740844,-2.28412 -0.435337,-0.31039 -1.386832,-0.86068 -2.114436,-1.22288 -5.568926,-2.7722 -10.715625,-5.82934 -10.715625,-6.36508 0,-0.51787 2.208988,-2.324457 6.085417,-4.976865 2.110052,-1.443784 4.729427,-3.342355 5.820833,-4.219052 1.091406,-0.876694 2.786814,-2.158989 3.767572,-2.849546 1.578115,-1.111158 3.272782,-2.880299 3.010392,-3.142689 -0.229026,-0.229026 -1.760662,0.667893 -3.470672,2.032415 -1.871176,1.493123 -3.95038,2.919481 -4.255733,2.919481 -0.09132,0 -0.617022,0.357188 -1.168226,0.79375 -0.551203,0.436563 -1.111609,0.79375 -1.245343,0.79375 -0.133736,0 -0.592852,0.372592 -1.02026,0.82798 -0.427408,0.45539 -1.372417,1.223946 -2.100022,1.707906 -3.165525,2.105515 -5.34448,3.658275 -6.043943,4.307015 -1.368854,1.269595 -2.636957,4.534185 -1.761265,4.534185 0.145521,0 0.264583,-0.17157 0.264583,-0.38126 0,-0.87652 0.640964,-0.60852 2.616401,1.09397 1.149258,0.99045 2.548766,2.0347 3.110016,2.32054 2.790621,1.42123 5.510779,3.45789 8.314198,6.22508 0.664578,0.65599 1.600142,1.5499 2.07903,1.98646 2.215443,2.01964 6.899106,7.25694 6.899106,7.71463 0,0.38066 0.182718,0.50569 0.727604,0.49788 0.54125,-0.008 0.717685,0.1112 0.68888,0.46446 -0.0213,0.26119 0.276357,0.6752 0.661458,0.92004 0.385101,0.24483 1.308579,1.0176 2.052177,1.71726 0.743592,0.69967 1.896822,1.61764 2.562722,2.03994 2.03412,1.29 2.15022,1.62478 1.78658,5.15177 -0.31358,3.0415 -0.1479,6.87648 0.2855,6.60862 0.127,-0.0785 0.2316,0.31081 0.23244,0.8651 z m 61.55015,-6.32817 c 1.49651,-1.155 1.94452,-2.12911 0.61912,-1.34618 -1.15949,0.68493 -2.31798,1.93528 -1.7931,1.93528 0.22588,0 0.75417,-0.2651 1.17398,-0.5891 z"/>
     </g>
  </g>
</svg>
